<svg width="128" height="128" viewBox="0 0 128 128" fill="none" xmlns="http://www.w3.org/2000/svg">
<path d="M64 0C28.7041 0 0 28.6983 0 63.9869C0 89.3506 14.8379 111.327 36.2938 121.672V121.725H36.3988C44.7501 125.742 54.1256 128 64 128C99.2959 128 128 99.3017 128 64.0131C128 28.6983 99.2959 0 64 0ZM64 5.25128C96.3808 5.25128 122.748 31.6127 122.748 63.9869C122.748 73.2816 120.568 82.1038 116.707 89.9282C108.251 85.8322 99.6635 82.7865 90.9971 80.7122V31.7177C90.9971 30.0111 89.6578 28.6457 87.977 28.6457H77.2097H50.0812H39.3139C37.6594 28.6457 36.2938 30.0111 36.2938 31.7177V80.9485C27.89 83.0228 19.5388 86.016 11.3188 89.9545C7.43209 82.1038 5.25236 73.3079 5.25236 63.9869C5.25236 31.6127 31.6192 5.25128 64 5.25128ZM14.7066 95.8622C21.666 92.4226 28.888 89.7707 36.3201 87.9327V115.765C27.5224 111.065 20.0903 104.185 14.7066 95.8622ZM50.0812 121.042V55.4798C50.0812 47.8917 56.3053 41.6164 63.7374 41.6164C71.1695 41.6164 77.2097 47.7604 77.2097 55.3223C77.2097 55.3748 77.1834 55.4273 77.1834 55.4798H77.2097V78.2966C70.8806 77.5614 64.5252 77.3251 58.1699 77.6665L52.9438 85.2546C61.0849 84.5719 69.016 84.6244 76.842 85.5171C76.9208 85.5171 76.9733 85.5171 77.0521 85.5434C77.1046 85.5434 77.1572 85.5434 77.2359 85.5696C78.6016 85.7272 83.565 86.3573 88.1083 87.4864L77.2359 91.1885V121.252C72.9815 122.224 68.5696 122.775 64.0525 122.775C59.1941 122.722 54.5458 122.119 50.0812 121.042ZM90.9709 116.132V88.064C98.3767 89.9282 105.704 92.6589 113.057 96.2298C107.542 104.606 99.9261 111.485 90.9709 116.132Z" fill="url(#paint0_linear_1_3)"/>
<defs>
<linearGradient id="paint0_linear_1_3" x1="63.9989" y1="130.769" x2="63.9989" y2="-19.6259" gradientUnits="userSpaceOnUse">
<stop offset="0.0858" stop-color="#8D29C1"/>
<stop offset="0.2383" stop-color="#942BBB"/>
<stop offset="0.4667" stop-color="#A92FAC"/>
<stop offset="0.7413" stop-color="#CA3793"/>
<stop offset="1" stop-color="#F03F77"/>
</linearGradient>
</defs>
</svg>
