<svg width="100" height="100" viewBox="0 0 100 100" fill="none" xmlns="http://www.w3.org/2000/svg">
<g clip-path="url(#clip0_19286_45483)">
<circle cx="50" cy="50" r="50" fill="#010101"/>
<path d="M18.4492 78.325H35.928C36.0201 78.325 36.196 78.3583 36.2732 78.2982C36.3861 78.2106 36.41 77.8867 36.4451 77.7528L36.848 76.2442L38.3501 70.626L38.8261 68.8313C38.8721 68.6656 38.8888 68.3056 39.1018 68.2866C39.6298 68.239 40.1833 68.2851 40.7139 68.2851H58.3228C58.4222 68.2851 58.593 68.2531 58.6724 68.3267C58.7949 68.4406 58.8237 68.7527 58.869 68.9093L59.3036 70.3919L60.9129 75.9061L61.4367 77.7008C61.4773 77.8363 61.5252 78.2452 61.6599 78.3094C61.7725 78.3627 61.9718 78.325 62.0943 78.325H79.9112L74.64 63.031L65.3544 36.0845L60.8372 22.9754L59.2865 18.4756C59.139 18.0717 59.005 17.6611 58.869 17.2531C58.8061 17.0641 58.7577 16.8027 58.6464 16.6372C58.5899 16.5531 58.4625 16.5769 58.3748 16.5769H39.8036C39.726 16.5769 39.6043 16.555 39.5458 16.6186C39.4425 16.7308 39.4007 16.9796 39.3528 17.1231L38.9798 18.2155L37.6954 21.987C35.9254 26.83 34.4973 31.801 32.6918 36.6307C32.1115 38.1827 31.6247 39.773 31.0812 41.3386L30.64 42.6131C30.5932 42.7444 30.459 42.9915 30.4901 43.1307C30.5187 43.2589 30.7799 43.3686 30.8821 43.4368C31.2381 43.674 31.5852 43.9214 31.9225 44.1846C33.042 45.0583 34.0679 46.0919 34.9026 47.2429C38.3101 51.9411 39.0004 58.1286 36.5702 63.4212C34.59 67.7339 30.5742 71.1155 25.9401 72.2157C24.6543 72.5208 23.3589 72.6808 22.0386 72.6808C21.668 72.6808 21.2878 72.692 20.9202 72.6439C20.8063 72.6288 20.5137 72.5586 20.4182 72.6296C20.3244 72.6993 20.2977 72.9133 20.261 73.0189L19.8948 74.0854C19.3734 75.48 18.9099 76.909 18.4492 78.325Z" fill="white"/>
<path d="M48.9336 32.8867C48.8056 33.757 48.4521 34.6398 48.2162 35.4877L46.6556 41.0799L44.0546 50.3916L42.7432 55.0734H55.15L53.7564 50.0794L51.1033 40.5857L49.6208 35.2797L49.1906 33.7451L48.9336 32.8867Z" fill="#010101"/>
<path d="M18.2695 46.1763V46.2023C19.2483 46.612 20.1835 47.276 21.1046 47.804L26.0466 50.6201C26.9411 51.1307 27.8253 51.7076 28.7516 52.1576C29.2022 52.3763 29.8925 52.0119 30.3382 51.8801C30.5807 51.8085 30.8028 51.7391 31.0405 51.8702C31.6594 52.2112 31.4395 53.167 31.7273 53.7192C31.8549 53.9642 32.1118 54.0758 32.341 54.2061C32.827 54.4824 33.3658 54.9141 33.9016 55.0718C33.8495 53.8568 33.353 52.5571 32.8156 51.4824C30.6021 47.0554 25.6024 44.56 20.7405 45.4371C19.9036 45.5879 19.0418 45.8137 18.2695 46.1763Z" fill="#41FBFF"/>
<path d="M13.4562 50.1551L19.0484 53.3393C20.1482 53.9698 21.2477 54.7256 22.4037 55.2451C23.1372 55.5743 24.0138 54.5267 24.7186 54.9667C25.3927 55.3878 24.9604 56.5039 25.5273 57.0057C25.7981 57.2455 26.1745 57.3997 26.4873 57.5789L28.36 58.6454L31.4552 60.4104C31.9496 60.6916 32.4418 61.0365 32.9638 61.2615C33.3311 60.3662 33.5912 59.4938 33.8221 58.5564C32.5036 57.7493 31.1318 57.0213 29.7906 56.2524C29.253 55.9442 28.5675 55.6807 28.1003 55.2737C27.7348 54.955 27.716 54.3477 27.6265 53.9006C27.5727 53.6316 27.5254 53.3692 27.2676 53.2212C26.9853 53.0592 26.7177 53.1687 26.4352 53.2675C25.9997 53.4194 25.5251 53.6524 25.0567 53.5211C24.5006 53.3648 23.9437 52.9234 23.4441 52.637L20.1928 50.7833L16.6814 48.7839L15.7451 48.2491C15.6404 48.1895 15.4789 48.0506 15.3548 48.0538C15.1732 48.0584 14.959 48.362 14.8298 48.478C14.3467 48.9113 13.7184 49.5548 13.4561 50.1551" fill="#41FBFF"/>
<path d="M12.0508 52.8887C11.8852 53.6107 11.624 54.3023 11.5546 55.0475C11.5377 55.2293 11.4287 55.5521 11.4967 55.7256C11.5388 55.8328 11.6977 55.8895 11.7907 55.9428L12.623 56.418C13.4622 56.8792 14.2807 57.3775 15.12 57.8387C15.429 58.0082 15.7835 58.31 16.1344 58.3724C16.5752 58.4504 17.144 58.1557 17.5649 58.035C17.8092 57.9651 18.0282 57.8907 18.2672 58.0265C18.978 58.4304 18.5321 59.5725 19.1019 60.0815C19.5923 60.5193 20.3236 60.8043 20.8942 61.13L24.4056 63.1307C25.5444 63.75 26.6611 64.4148 27.7869 65.0575L28.7233 65.5925C28.8299 65.6537 28.9862 65.7868 29.1134 65.7858C29.3002 65.7842 29.597 65.481 29.7377 65.3668C30.1452 65.0354 30.5355 64.6887 30.8932 64.304C31.0354 64.1511 31.2103 64.0052 31.2983 63.8129C30.6517 63.5344 30.0366 63.1078 29.4256 62.7574L25.9142 60.7547L23.0791 59.142C22.6479 58.8949 22.137 58.6804 21.7527 58.3646C21.3691 58.0496 21.3557 57.4269 21.2584 56.9723C21.2059 56.727 21.1749 56.4703 20.9461 56.3212C20.5993 56.0952 20.1982 56.3015 19.8538 56.4248C19.3328 56.6112 18.8843 56.7423 18.3712 56.4591L14.0015 53.9702L12.727 53.2419C12.5167 53.1212 12.2883 52.943 12.0508 52.8887Z" fill="#41FBFF"/>
<path d="M11.7656 59.157C12.3195 61.1233 13.1902 62.8605 14.6032 64.3592C17.4483 67.3775 22.0986 68.582 26.0452 67.2981C25.7731 67.0432 25.3542 66.8848 25.0308 66.6999L22.8199 65.4405L15.355 61.1855C14.8131 60.8624 14.7923 60.3443 14.6733 59.7812C14.611 59.4862 14.5867 59.1276 14.2886 58.9702C13.8097 58.7179 13.196 59.1348 12.728 59.2631C12.3654 59.3624 12.1076 59.2555 11.7656 59.157Z" fill="#41FBFF"/>
</g>
<defs>
<clipPath id="clip0_19286_45483">
<rect width="100" height="100" fill="white"/>
</clipPath>
</defs>
</svg>
