<?xml version="1.0" encoding="utf-8"?>
<!-- Generator: Adobe Illustrator 26.0.2, SVG Export Plug-In . SVG Version: 6.00 Build 0)  -->
<svg version="1.1" id="Layer_1" xmlns="http://www.w3.org/2000/svg" xmlns:xlink="http://www.w3.org/1999/xlink" x="0px" y="0px"
	 viewBox="0 0 490 490" style="enable-background:new 0 0 490 490;" xml:space="preserve">
<style type="text/css">
	.st0{fill-rule:evenodd;clip-rule:evenodd;fill:#4CB8D7;}
	.st1{fill-rule:evenodd;clip-rule:evenodd;fill:#363636;}
	.st2{fill:#FFFFFF;}
	.st3{fill-rule:evenodd;clip-rule:evenodd;fill:#B24D9D;}
	.st4{fill-rule:evenodd;clip-rule:evenodd;fill:#3EC6ED;}
	.st5{fill-rule:evenodd;clip-rule:evenodd;fill:#F7F8FC;}
	.st6{fill-rule:evenodd;clip-rule:evenodd;fill:#051447;}
	.st7{fill-rule:evenodd;clip-rule:evenodd;fill:#081242;}
	.st8{fill-rule:evenodd;clip-rule:evenodd;fill:#CCE6F8;}
	.st9{fill-rule:evenodd;clip-rule:evenodd;fill:#40C5E9;}
	.st10{fill-rule:evenodd;clip-rule:evenodd;fill:#C8E9F1;}
	.st11{fill-rule:evenodd;clip-rule:evenodd;fill:#4A8AC9;}
	.st12{fill-rule:evenodd;clip-rule:evenodd;fill:#A2DCED;}
	.st13{fill-rule:evenodd;clip-rule:evenodd;fill:#4F79BC;}
	.st14{fill-rule:evenodd;clip-rule:evenodd;fill:#4990CD;}
	.st15{fill-rule:evenodd;clip-rule:evenodd;fill:#0094CF;}
	.st16{fill-rule:evenodd;clip-rule:evenodd;fill:#32B1E6;}
	.st17{fill-rule:evenodd;clip-rule:evenodd;fill:#8F5FA7;}
	.st18{fill-rule:evenodd;clip-rule:evenodd;fill:#814C9E;}
	.st19{fill-rule:evenodd;clip-rule:evenodd;fill:#F4FBFE;}
	.st20{fill-rule:evenodd;clip-rule:evenodd;fill:#20C4F4;}
	.st21{fill-rule:evenodd;clip-rule:evenodd;fill:#8E4399;}
	.st22{fill-rule:evenodd;clip-rule:evenodd;fill:#526AB2;}
	.st23{fill-rule:evenodd;clip-rule:evenodd;fill:#0C0E24;}
	.st24{fill-rule:evenodd;clip-rule:evenodd;fill:#5F5BA8;}
	.st25{fill-rule:evenodd;clip-rule:evenodd;fill:#FFFFFB;}
	.st26{fill-rule:evenodd;clip-rule:evenodd;fill:#6653A3;}
	.st27{fill-rule:evenodd;clip-rule:evenodd;fill:#754E9F;}
	.st28{fill-rule:evenodd;clip-rule:evenodd;fill:#009BD5;}
	.st29{fill-rule:evenodd;clip-rule:evenodd;fill:#080A18;}
	.st30{fill-rule:evenodd;clip-rule:evenodd;fill:#BF4B9B;}
	.st31{fill-rule:evenodd;clip-rule:evenodd;fill:#C161A5;}
	.st32{fill-rule:evenodd;clip-rule:evenodd;fill:#BF4398;}
</style>
<circle class="st0" cx="245" cy="245" r="245"/>
<circle class="st1" cx="242.8" cy="245.3" r="224.6"/>
<path class="st2" d="M35.6,229.6c1.4-17.2,4.9-33.7,10.4-49.9c0.3-1,0.7-1.4,1.8-1.3c0.4,0.1,0.9,0,1.3,0c65.4,0,130.7,0,196.1,0
	c7.1,0,13.1-2.5,17.8-7.9c3.8-4.4,7.7-8.7,11.5-13c5.6-6.4,13.3-6.4,18.9-0.1c4.7,5.2,9.3,10.5,13.9,15.8c3.2,3.6,7.2,5.3,12,5.3
	c38.6,0,77.1,0,115.7,0c1.8,0,2.5,0.6,3.1,2.2c4.6,13.9,7.9,28.2,9.4,42.8c0.1,1.4,0.1,2.9,0.5,4.3c0.5,1.9-0.4,2-1.9,2
	c-50.6,0-101.2,0-151.8,0c-4.2,0-7.9-1.4-10.7-4.5c-5.1-5.5-10.2-11.1-15-16.9c-4.5-5.4-13.9-5.5-18.7,0
	c-5.4,6.1-11.2,11.8-16.9,17.7c-2.3,2.4-5.2,3.6-8.6,3.6c-62.2,0-124.4,0-186.6,0C37,229.6,36.4,229.6,35.6,229.6z"/>
<path class="st2" d="M322.7,337.1c-34,0-67.9,0-101.9,0c-5.2,0-9.4-1.8-12.8-5.7c-4.5-5.2-9.1-10.3-13.7-15.4
	c-5.4-6-13.4-6.1-19-0.2c-5.4,5.8-11,11.5-16.5,17.3c-2.7,2.8-5.9,4.1-9.8,4.1c-30.5,0-61.1,0-91.6,0c-1.6,0-2.4-0.4-3-1.9
	c-7.1-15.5-12.4-31.7-15.7-48.5c-0.3-1.3,0-1.7,1.3-1.6c0.5,0,1,0,1.5,0c43.5,0,87,0,130.5,0c7.1,0,12.9-2.6,17.6-7.9
	c3.8-4.3,7.6-8.6,11.4-12.9c5.7-6.6,13.4-6.6,19.2,0c4.5,5.1,9,10.2,13.5,15.3c3.2,3.7,7.1,5.5,12,5.4c65.6,0,131.3,0,196.9,0
	c2.7,0,2.8,0,2.2,2.7c-3.4,16.6-8.6,32.5-15.8,47.8c-0.7,1.4-1.5,1.4-2.7,1.4C391.8,337.1,357.2,337.1,322.7,337.1z"/>
<path class="st2" d="M76.4,122.1c42-52.4,96.2-81.4,163.9-81.9c69-0.5,124.2,28.5,167.2,82c-0.8,0.9-1.4,0.7-2,0.7
	c-12.4,0-24.8,0-37.2,0c-4.9,0-9-1.8-12.3-5.5c-4.7-5.3-9.4-10.6-14.1-15.9c-4.9-5.6-13.1-5.7-18.2-0.4
	c-5.6,5.9-11.3,11.7-16.9,17.7c-2.7,2.9-6.1,4.2-10,4.2c-72.8,0-145.6,0-218.4,0c-0.6,0-1.1,0-1.7,0
	C76.7,122.6,76.5,122.3,76.4,122.1z"/>
<path class="st2" d="M90.5,388c9.1,0.3,15.2-4.3,20.3-10.8c2.3-2.9,4.8-5.5,7.2-8.2c1-1.1,1.9-2.2,2.9-3.2
	c4.7-4.7,12.4-4.6,16.8,0.3c5.1,5.6,10,11.2,15,16.8c2.7,3.1,6.2,4.8,10.3,4.9c0.9,0,1.9,0.1,2.8,0.1c74.8,0,149.7,0,224.5,0
	c0.8,0,1.6,0,2.7,0C315.2,473.9,173.6,477.9,90.5,388z"/>
<path class="st3" d="M99.2,277.6c-0.7-1.7-1.8-2.7-3.2-3.8l-0.8,0.2L99.2,277.6z"/>
<path class="st4" d="M328.1,222.3c-1.5,1.3-6.3,3.9-8.8,5.9c-6,4.8-25.5,19.6-27.5,4.6c-0.2-1.6-0.1-4.5,1.5-5.4
	c3.3-1.9,3.1,7.6,14.9,1.8C310.7,228,326.5,218.5,328.1,222.3L328.1,222.3z M170.3,220c16.5,0.9,24.4,16,32.5,8.2
	c4.8-4.6,5.3,1.9,4.3,5.3c-2.9,9.7-14.2,3.2-19.5-0.4C181.2,228.6,180,226.4,170.3,220L170.3,220z M179.6,173.4
	c-6.2,3.2-28.5,23.5-31.3,29.4c2.5,2.3-0.7,1.2,0.6,3.8c1.4,3,0.1,1.1,0.5,4.8c0.5,3.8,2.5,8,4,10.9c1.5,3,2.1,7.7,4.9,9.7
	c3.6,2.5,5.7,8.6,5.8,8.8l0.5-1.9l0.3-1.3l0.4,0.1l-0.8-1.4c0.4-0.1,10.4,2.9,11.6,3.3c4.1,1.2,7.7,2.9,11.5,5
	c4,2.2,6.1,3.5,9.5,6.5c1.5,1.3,2.9,2.6,4.5,3.7c1.9,1.3,4.1,1.5,5.3,3c-0.2,3.6-2.6,2.3-4.4,4.4c-0.5,2.3,0,4.7-0.1,7
	s-0.7,4.3-1,6.6l0.1,1.9l2.1-2.4c1,2.6-0.2,2.4,3.1,3.5c2.9,0.9,2.7,1.3,6,1c2.7-0.1,8.1-1.7,10.3-3.2c6.6-9.3,16-11.4,27.1-11.1
	c9,0.2,23,3.8,24.2,14.5l10.5,3.7c8.1-2.6,5.7-2.8,7.9-4.1c2.2-1.3,0.9,0.2,2.8,0.1l0.3-1.7c-2.1-4.8-3.4-6.8-3.3-12.4
	c0-2.2,1-4.6-1-5.8c-1.9-1.1-3.8-0.7-3.8-3.6c1.3-1.6,3.3-1.6,5.3-2.7c1.7-1,3.5-2.4,5-3.7c6.3-5.1,14.3-9.4,22.2-11.6
	c2-0.6,11.3-3.3,12.6-3.4l-0.1,1.1l-2.9,4.6c-0.8,4.9-6.1,12.2-5.7,18.4l0.4,1.3c2.7-5,0.6-7.3,3.9-5.8c1.5-3.9,5.2-5.3,5.6-9.4
	c0.2-2.4,3.9-5.6,6.4-10.7c0.9-1.9,1.3-4.1,2.3-6s2.4-3.6,3-5.7c0.9-2.8,0.4-3.8,2-6.8c1.5-2.8-0.8-1.8,0.3-5.3
	c-2.7-7.7-27.7-32.9-35.2-36.8c-11.4-4.9-24.9-11.8-37.2-13.4c-4.1-0.6-3.9,2.3-6.4,4c-6.2,4.2-27.2,3.5-34,2.5
	c-14.6-2.3-9.1-7.9-17.4-6C187,167.4,164.6,187.3,179.6,173.4z"/>
<path class="st5" d="M151.5,344.7c21.1,15.7,67.8,33,93.9,33.3c25.8,0.3,73.7-16.8,94.8-32.3c-0.2-1.9,0.5-2.2,1-3.8
	c0.5-1.5-0.3-2.2,0.3-3.3c0.7-1.5,4.4-4.5,3.8-6.1c-1.5-4.3,2.2-3.6,4.1-7.5c1.1-2.2,0.6-3.6,0.9-5.8c0.3-2.1,1.4-2.6,1.7-4.6
	c0.6-3.6,0.7-8.7,1.3-12.3c1-5.7,1.2-19.5,0.1-25.1c-1.3-6.5,1.7-5-4.2-9c-9.2,4-11.7,12.4-18.8,17.9c-8.5,6.7-17.5,9.6-28.3,6.3
	l-7.9-3.7l-1.8-1.3c-2-0.3-6.1-2.4-7.5-3.8l-10.5-3.7c-2.9,7.1-5.2,10-12.7,12.5c-5.9,2-12.3,3-9.8,11.4c2.1,7.3,7.2,9.7,14.5,8.7
	c8.5-1.2,9.8-4.2,15.4-9.1c5.4-4.7,5.1,1.5,0.9,5.7c-5,4.8-9.7,4.4-12.5,12.1c-2.6,7-1.7,11-7.2,17.4c-4.3,5-10.1,7.4-16.7,6.8
	c-17.8-1.6-18.7-21.8-21.9-27.7c-3.2-6-8.8-6.9-12-12.6c-2.7-4.8-1-9.1,3.6-2.2c7.5,11.2,25,13.8,29.5-0.1
	c2.5-7.9-5.6-8.8-10.6-10.6c-7.3-2.6-9.4-5.4-12.3-12.3c-3.9,0.6-9.4,2.7-13.3,3.9c-4.1,1.3-9,3.6-12.8,4.6
	c-1.6,1.4-10.1,5.2-12.5,5.9c-27,6.1-29.2-24.6-42.6-28.4c-1,1.5-1.8,1.3-0.9,2.7c1.2,1.8-0.2,1.1-0.7,3.1c-0.7,2.5,0.5,3-1,5.8
	c-1.3,2.5-1.1,2.1-1.1,5.1c0,4.5,0,9.1,0,13.6c0,3.6-0.1,2.5,1.3,5.4l1.6,11.5c0,2.1-0.2,3.9,0.8,5.9c3.6,7.4,0.7,0.8,2.2,9
	c0.5,3,3,5.7,5.2,7.7C153.1,339.6,149.6,339.8,151.5,344.7z"/>
<path class="st6" d="M118.8,256.3c0.8-3.3,3.3-11.1,5-13.9l2.2-5.1l3.7-7.2c0.7-2,2-4.5,3.6-5.9c0.4-1.8,1.1-2.7,2.4-3.9
	c0.4-2,3.2-5.9,4.8-7.3c0.8-2,2.7-4.6,4.3-5.9c0.8-1.6,2-3.2,3.5-4.3c2.8-6,25.1-26.3,31.3-29.4c19.4-13.9,42.7-22.2,66.7-22.4
	c22.3-0.2,49.2,8.3,66.6,22.5c7.6,3.9,32.6,29.1,35.2,36.8c1.8,1.3,6.3,8.7,6.8,11c1.5,1.3,4.1,6.2,4.3,8.2c1.3,1.3,2.3,3.4,2.5,5.3
	c1.7,1.8,3.3,6.7,4.1,9.2l2,6l2.3,7.8l0.5,2.7c3.2-1.5,5.2-2.6,8-4.9c0.7-0.6,4.9-5.4,5.3-3.5c1,4.7-7.3,16.4,2.7,10.6
	c5.3-3.1-1.4,12.5-1.5,14.9c-0.3,5,10.8-5.7,2.6,9.4c-3,5.6-7.1,10.3-10.5,15.7c-10.8,17.3-15.2,30.4-37.3,43.1
	c-21,15.4-69,32.6-94.8,32.3c-26-0.3-72.8-17.6-93.9-33.3c-11.4-6.8-20.9-14.9-28.1-26.1c-3.5-5.5-6.9-11.2-10.4-16.7
	c-3.5-5.6-7.8-10.5-11.1-16c-9.1-15,0.4-7.8,1.6-10.2c1-2.1-6.1-17.3-2.5-16.2c1.3,0.4,5.8,4,6,0.4c0.1-2.5-2.4-7.4-1.7-9.7
	C106,247.7,112.9,257.1,118.8,256.3L118.8,256.3z M134.7,117.6c0.4-3.4-0.2-6,0-8.6c1.1,1.3,2.3,3.9,3.8,5.8
	C144.1,122.1,133.9,125.9,134.7,117.6L134.7,117.6z M357.8,136.6c-0.3-6.8-1.7-12.9-2-19.3c-0.1-1.3,0.6-7.1-0.8-7.4
	c-2.8-0.6-3.7,0.9-5.7-3.2c-3.3-6.8,0.8-17.4-10.2-1.5c-1.5,2.2-2.7,4.6-4.3,6.8c-4.7,6.4-15.6,14.8-21.8,21.3
	c-3.5,3.7-6.6,7.6-9.7,11.5c-2.8,3.5-9.4,9.2-3.2,11.7c2.5,1.7,5.2,3.1,7.8,4.6c3,1.8,5.3,4.5,7.6,0.6c7.2-12.8,26.6-49.2,35.8-15.5
	c1.2,13.3,1.8,22.9,1.1,36.3c-0.3,5.4-1.3,12.7,0,17.9c0.6,2.4,5.6,10.5,7.5,10.7c1.9-2.3,1.5-36.8,0.7-41.4
	C360.6,158.7,358.6,147.7,357.8,136.6L357.8,136.6z M192.9,158c4.9-1.8,2.6-3.8,0.3-6.9c-2-2.7-4.1-5.3-6.2-7.8
	c-4.1-5-8.6-10.3-13.4-14.7c-10.3-9.4-12.4-16.8-20-21.6c-1.3-0.8-3-1.7-4.1-2.6c-0.8-0.7-2.1-2.6-2.8-2.6c-0.6,2,1.3,5.7,0.4,9.3
	c-0.7,2.8-2.5,6-3.4,9.3c-6.8,9-12,34.3-10.8,45.2c-1,4.8-1.7,44.9,0.3,47.1c1.2-0.2,7.2-9,7.8-10.5c1.6-4.2-2.8-35.4,1-54.5
	c5-21.6,16.6-13.5,25.8-0.4c12.9,18.4,8.1,21.3,17.2,15.8C187.5,161.4,190.5,159.8,192.9,158L192.9,158z M196.5,146.9l-4.2-5.1
	l-4.8-6.1c-0.4-1.3-3.4-4.5-4.6-5.2l-7.2-7.3c-4.4-4.3-7-7.7-10.4-12.8c-3.3-5-6.7-8.1-11.1-12.1c-6.7-6.1-8.7-10.8-10.2-11.9
	c-3.5-2.4-5.1,10.1-5.9,12.1c-2,5.3-6.4,4.6-6.8,12.6c-1.4,25.1-3.6,22.9-5.9,41c-1,7.6-0.8,14.8-1.3,22.4
	c-0.4,7.7-0.7,14.9-0.6,22.6c0,7,1.3,15.4,0.8,22.1c-0.6,7.3-2.8,11.2-5.6,17.6c-5.6,13-3.5,4-18.1-9.5c-5.9-5.4-4.7,7.3-4.9,9.5
	c-0.6,6-4.7,0.1-5.4,4.9C89.5,247,92.2,255,94,260l1.8,3.4l-3.7-3l-1-0.7l-4-3.6c-0.9-0.7-1.4-1.4-2.6-1
	c-1.1,2.7,15.1,37.4,17.6,42.2c3.4,6.5,7.9,12.9,11.1,19.3c2.5,5.1,9.9,13.1,14.6,16.2c1.6,1.2,3.4,2.3,4.5,4
	c0.8,1.4,1.8,2.2,3.2,2.8l3.5,3c24.4,18.2,50.6,30,80.6,36.8c33.6,7.6,64-1,94.9-14.4c12.7-5.5,26.5-13,37.1-21.9
	c12.3-10.3,18-19.2,26.6-32.4c9.2-14.2,16.8-19.6,18.2-37.9c0.7-9.1,0-11.4-2.7-19.6c-1.4-4.3-1.3-11.1-7.2-11.2
	c-14.1-0.3-16.3-1.4-18.5-17c-2.5-17.7-0.5-37.7-1.4-56c-0.5-9.3-1.5-17.7-2.7-26.9c-0.9-7.8-1.7-18.1-3.6-25.5
	c-1.4-5.4-5.5-30-14.9-26.5c-4.3,1.6-9.6,9.6-13,13.2c-7.6,8-23,23-29,30c-11.5,13.5-15.8,17-35.8,13.2c-23-4.4-31.3-1.1-51.4,1.9
	C208.3,149.9,204.1,148.5,196.5,146.9z"/>
<path class="st7" d="M236.2,337c2.3-9.2,25.4-6,23.3,0.6c-1,3.2-9.8,8.8-18.6,3.8C237.5,339.5,238.1,339.2,236.2,337L236.2,337z
	 M241,314.8c2.1-0.6,3.6-1,5-2.7c1.2-1.4,1.7-3.3,2.6-4.1c1.3,0.9,1.7,3.8,4,5.8c2.5,1.9,3.3,2.7,6.6,2.9c2.4,0.2,7.1-0.7,8.4-0.4
	c0.6,1.6,0,3.7-1.1,5c-3.9,1.6-6.3-0.1-9.8-0.3c-3.4-0.2-7.6,0-11.1-0.1c-3.5,0-19.9,1.8-16.9-4.7C231.9,314.7,237,316.9,241,314.8
	L241,314.8z M250.1,268.6c1.6-2.9,18.9,1.1,18.1,5.7C264.1,276.8,248.5,271.5,250.1,268.6L250.1,268.6z M223,276.5l-0.5,3.5
	c3,6.9,5,9.7,12.3,12.3c5,1.8,13.2,2.7,10.6,10.6c-4.5,13.8-22,11.3-29.5,0.1c-4.7-6.9-6.3-2.6-3.6,2.2c3.2,5.7,8.8,6.7,12,12.6
	c3.1,5.9,4,26,21.9,27.7c6.6,0.6,12.4-1.8,16.7-6.8c5.5-6.5,4.6-10.4,7.2-17.4c2.8-7.7,7.6-7.3,12.5-12.1c4.3-4.1,4.6-10.3-0.9-5.7
	c-5.7,4.9-7,7.9-15.4,9.1c-7.3,1.1-12.4-1.4-14.5-8.7c-2.4-8.4,3.9-9.4,9.8-11.4c7.6-2.6,9.8-5.4,12.7-12.5
	c-1.2-10.6-15.3-14.3-24.2-14.5C239,265.2,229.7,267.2,223,276.5z"/>
<path class="st8" d="M151.5,344.7c-1.9-4.9,1.6-5.2-2.8-8.9c-2.3-2-4.7-4.7-5.2-7.7c-1.5-8.2,1.5-1.6-2.2-9c-1-2-0.8-3.8-0.8-5.9
	l-1.6-11.5c-1.4-2.9-1.3-1.8-1.3-5.4c0-4.5,0-9.1,0-13.6c0-3-0.2-2.5,1.1-5.1c1.5-2.9,0.3-3.4,1-5.8c0.6-2,1.9-1.3,0.7-3.1
	c-0.9-1.4-0.1-1.2,0.9-2.7v-0.4c-3.2-1.5-5.2-2.4-8.8-3.2c-2.8-0.7-6.3-0.9-8.7-2.6c-2.6-0.2-4.8-0.8-5.1-3.6
	c-5.9,0.8-12.8-8.7-13.5-6.1c-0.6,2.3,1.9,7.1,1.7,9.7c-0.2,3.6-4.8,0-6-0.4c-3.6-1.1,3.5,14.2,2.5,16.2c-1.2,2.4-10.7-4.7-1.6,10.2
	c3.3,5.5,7.6,10.4,11.1,16s6.8,11.2,10.4,16.7C130.6,329.8,140.1,337.9,151.5,344.7z"/>
<path class="st8" d="M370.7,260.4l-2.8,1.6c-5.5,2.3-14.2,3.4-18.8,6.2c5.9,4,2.9,2.6,4.2,9c1.1,5.6,0.9,19.4-0.1,25.1
	c-0.6,3.6-0.7,8.6-1.3,12.3c-0.3,2-1.4,2.5-1.7,4.6c-0.4,2.2,0.2,3.6-0.9,5.8c-1.9,4-5.6,3.3-4.1,7.5c0.6,1.6-3.1,4.6-3.8,6.1
	c-0.6,1.1,0.2,1.8-0.3,3.3c-0.5,1.7-1.2,1.9-1,3.8c22.1-12.7,26.5-25.8,37.3-43.1c3.4-5.4,7.4-10.1,10.5-15.7
	c8.2-15.2-2.9-4.4-2.6-9.4c0.1-2.4,6.8-18,1.5-14.9c-10.1,5.8-1.8-5.9-2.7-10.6c-0.4-1.8-4.6,2.9-5.3,3.5
	C375.9,257.9,373.9,258.9,370.7,260.4z"/>
<path class="st9" d="M300.1,156.6c2.5,1.7,5.2,3.1,7.8,4.6c3,1.8,5.3,4.5,7.6,0.6c7.2-12.8,26.6-49.2,35.8-15.5
	c5,3.4,6.5,18.3,9.3,23.4c0.1-11.1-1.8-22.1-2.6-33.2l-0.7,0.7c-2.4-4.5-3.3-16.9-9.8-18.9c-7.3-2.3-15.4,2.9-20.7,7.4
	C317,134,306.7,145.8,300.1,156.6z"/>
<path class="st9" d="M143.6,120.3c-6.8,9-12,34.3-10.8,45.2v5.2c2.8-6.4,3.3-18.4,9-23.2c5-21.6,16.6-13.5,25.8-0.4
	c12.9,18.4,8.1,21.3,17.2,15.8c2.6-1.6,5.5-3.1,8-4.9c-5.3-8.2-13-17.6-19.9-24.5C164.8,125.2,156.1,117.4,143.6,120.3z"/>
<path class="st10" d="M179.6,173.4c-14.9,13.9,7.4-6,38.3-12.9c8.3-1.8,2.8,3.7,17.4,6c6.8,1.1,27.8,1.8,34-2.5
	c2.5-1.7,2.3-4.6,6.4-4c12.4,1.7,25.9,8.5,37.2,13.4c-17.4-14.1-44.4-22.6-66.6-22.5C222.3,151.2,199,159.5,179.6,173.4z"/>
<path class="st6" d="M297.1,266.8c-2-6.1,6.1-8.1,7.6-3.2C306.5,269.8,298.6,271.4,297.1,266.8L297.1,266.8z M296,277.8l3.2,3
	c4.9,4.5,12.1,3.5,16.4-1.2c1.4-1.6,4.2-5.2,5-7.1c1.3-3,1.4-6.5,2.5-9.2c0.1-1.9,0.2-3.1,1.2-4.7c-0.4-6.1,4.9-13.4,5.7-18.4
	c-4.9,5.6-8.4,25.9-8.9,26.1c-1.4-4.7,0-6.6-3.3-12c-1.8-3-7.1-5.8-4.9-8c2.1-2.1,14.9-6.9,20-10.8l0.1-1.1
	c-1.3,0.1-10.6,2.9-12.6,3.4c-7.9,2.3-15.9,6.5-22.2,11.6c-1.6,1.3-3.3,2.7-5,3.7c-1.9,1.1-4,1.1-5.3,2.7c0,2.9,1.9,2.5,3.8,3.6
	c2,1.2,1.1,3.6,1,5.8C292.6,271,293.9,273,296,277.8z"/>
<path class="st6" d="M194.4,262.7c4.7-0.8,6,8.2,0.5,8.5C189.9,271.6,189.6,263.6,194.4,262.7L194.4,262.7z M165.3,237.8
	c3.3,2.7,18.3,9.9,18.8,11.2c0.5,1.3-4.4,5.6-5.7,8.1c-1.3,2.7-2.5,10.3-2.6,10.6c-1.8-3.8-1.1-10.1-4.2-15.7
	c-2.9-5.4-4.6-8.4-6.8-14.2l-0.3,1.3c0.4,0.9,5.5,15,5.5,15.4c1.8,1.8,2.7,5.6,3.3,8.1l2.8,11.8c3.7,8.9,11.2,15.6,20.5,8.3
	c2.4-2.4,2.9-4.6,4.7-6.7c0.3-2.3,0.8-4.3,1-6.6c0.1-2.3-0.4-4.7,0.1-7c1.9-2.1,4.3-0.8,4.4-4.4c-1.2-1.5-3.4-1.7-5.3-3
	c-1.7-1.1-3-2.4-4.5-3.7c-3.4-3-5.5-4.3-9.5-6.5c-3.7-2-7.4-3.7-11.5-5c-1.2-0.4-11.3-3.4-11.6-3.3L165.3,237.8z"/>
<path class="st11" d="M323.1,263.3c-1.1,2.7-1.3,6.2-2.5,9.2c-0.8,1.9-3.6,5.6-5,7.1c-4.3,4.7-11.5,5.7-16.4,1.2l-0.5,1.7l-2.9,0.7
	l1,2l-1.7,0.9l1.6,0.9l-4.3,0.4l1.8,1.3c14.4-1.2,18.7,1.9,29-10.8c2.6-3.3,6.4-7.6,9.7-10.1c4.9-3.6,7.4-4.4,12.1-7.2
	c-1.4-1.5-1.1,0.3-2.8-1.6l1.8-2l-3-0.8c1.9-1.4,2.8,0,4.2-1.4l9.3-14.4c0.9-1.4,0.6-2.9,1.2-4.3c0.4-1,1.1-0.1,1.8-2.3
	c0.8-2.4-0.2-2.5,1.8-4.6c-0.2-2-2.9-6.9-4.3-8.2c-0.4,1.7-2,5.1-3.2,6.4c-3.4,4-0.7,4.4-2.9,7.2c-1.6,2-3.1,3.4-4.2,5.9
	c-1.4,3.5-2.7,3.1-4,6.2c-1,2.3-6,10.6-7.8,12.1c-2.6,2.2-1.5,4.4-2.7,4.7c-2.6,0.7-2.4,1.1-3.9,3l-2.9-1.3L323.1,263.3z"/>
<path class="st12" d="M300.1,156.6c6.6-10.9,16.9-22.6,26.6-30.9c5.3-4.5,13.4-9.7,20.7-7.4c6.5,2,7.3,14.4,9.8,18.9l0.7-0.7
	c-0.3-6.8-1.7-12.9-2-19.3c-0.1-1.3,0.6-7.1-0.8-7.4c-2.8-0.6-3.7,0.9-5.7-3.2c-3.3-6.8,0.8-17.4-10.2-1.5c-1.5,2.2-2.7,4.6-4.3,6.8
	c-4.7,6.4-15.6,14.8-21.8,21.3c-3.5,3.7-6.6,7.6-9.7,11.5C300.5,148.5,293.9,154.1,300.1,156.6z"/>
<path class="st13" d="M133.3,224.3c0.4,3.6-1,3.3,1,6.1c0.8,1.1,3,3.9,3.4,4.8c0.7,1.6,1.6,4,2.4,5.8c1.3,3,2.6,2.4,3.2,5
	c1.6,6.9,1.4,0,6,10.4c1.4,3.1,2.5,1.2,4,4.1c1.8,3.3,2.1,1.8,4,4.2l-1.5,1.5c6,3,10.8,9.9,15.4,14.6c8.9,9.1,12.8,5.2,23.7,6.8
	c1.2-2.2,3.6-1.4,4.7-3l-0.4-1.7l-1.6,1.7l-1.1-2.2c-9.3,7.3-16.8,0.6-20.5-8.3c-3.1-0.5-2.6-2.9-3.9-5.2c-4.9,1.3-0.6-0.3-6.1-1.9
	c-5-1.5-3.1-2.9-4.7-4.7c-1.4-1.5-4.7-3.2-6.2-5.2c-1-1.4-1-2.3-2.1-3.8c-7.6-10.1-2.8-6.8-6.2-10.8c-3.1-3.8-5.1-9.7-8.1-14.6
	c-1.7-2.7-1-4.4-3.3-7.7C134.4,221.6,133.7,222.5,133.3,224.3z"/>
<path class="st14" d="M135.7,220.4c2.3,3.3,1.6,5.1,3.3,7.7c3,4.9,5,10.8,8.1,14.6c3.3,4-1.5,0.7,6.2,10.8c1.1,1.4,1.1,2.4,2.1,3.8
	c1.4,2,4.8,3.7,6.2,5.2c1.6,1.8-0.3,3.2,4.7,4.7c5.5,1.6,1.2,3.2,6.1,1.9c1.3,2.3,0.8,4.7,3.9,5.2l-2.8-11.8c-2.2-1-1.6-1.4-3.6-2.6
	c-2.8-1.6-0.5,1.4-2.9-1.1c-2.8-2.9-5.4-5.3-8.1-8.4c-4.5-5.4-0.6-3.4-5.5-10.5c-1.6-2.3-1.2-3.5-3-5.2c-2.7-2.7-1.1-2.8-2.1-6.2
	c-1.6-1.3-2.4-0.7-3.4-2.3c-2.3-3.8-3-10.4-4.4-13.1C138.9,214.4,136.1,218.3,135.7,220.4z"/>
<path class="st15" d="M360.4,169.8c-2.7-5.1-4.2-20-9.3-23.4c1.2,13.3,1.8,22.9,1.1,36.3c-0.3,5.4-1.3,12.7,0,17.9
	c0.6,2.4,5.6,10.5,7.5,10.7C361.6,208.9,361.2,174.4,360.4,169.8z"/>
<path class="st15" d="M132.8,165.5c-1,4.8-1.7,44.9,0.3,47.1c1.2-0.2,7.2-9,7.8-10.5c1.6-4.2-2.8-35.4,1-54.5
	c-5.8,4.8-6.2,16.8-9,23.2L132.8,165.5z"/>
<path class="st16" d="M324.3,258.5c-1,1.6-1.1,2.9-1.2,4.7l0.3,2.3l2.9,1.3c1.5-1.9,1.3-2.3,3.9-3c1.2-0.3,0.1-2.5,2.7-4.7
	c1.8-1.5,6.8-9.7,7.8-12.1c1.3-3.1,2.6-2.7,4-6.2c1-2.6,2.6-4,4.2-5.9c2.2-2.8-0.5-3.3,2.9-7.2c1.1-1.3,2.7-4.6,3.2-6.4
	c-0.5-2.3-5-9.8-6.8-11c-1,3.5,1.2,2.5-0.3,5.3c-1.6,2.9-1.1,4-2,6.8c-0.7,2-2.1,3.8-3,5.7c-1,1.9-1.3,4.1-2.3,6
	c-2.5,5.1-6.2,8.3-6.4,10.7c-0.4,4.1-4.1,5.5-5.6,9.4c-3.3-1.4-1.2,0.8-3.9,5.8L324.3,258.5z"/>
<path class="st12" d="M143.6,120.3c12.4-2.9,21.2,4.9,29.4,13.2c6.8,6.9,14.6,16.3,19.9,24.5c4.9-1.8,2.6-3.8,0.3-6.9
	c-2-2.7-4.1-5.3-6.2-7.8c-4.1-5-8.6-10.3-13.4-14.7c-10.3-9.4-12.4-16.8-20-21.6c-1.3-0.8-3-1.7-4.1-2.6c-0.8-0.7-2.1-2.6-2.8-2.6
	c-0.6,2,1.3,5.7,0.4,9.3C146.4,113.9,144.5,117.1,143.6,120.3z"/>
<path class="st17" d="M354.5,258.6l-5.2,0.9l-4.3,1.1c-4.7,2.8-7.2,3.5-12.1,7.2c-3.3,2.5-7.1,6.8-9.7,10.1
	c-10.3,12.7-14.6,9.6-29,10.8l7.9,3.7c7.7-2,10.6,1.6,18.6-5.3c4.4-3.8,7.7-8.7,11.9-12.8c7.8-7.5,24.7-15,35.3-12.3l2.8-1.6
	l-0.5-2.7l-8.6,0.2L354.5,258.6z"/>
<path class="st17" d="M141.4,265.7c7.8-0.3,18.1,6.8,22.5,12.9c2.4,3.3,5.1,7.2,7.8,10.1c4.9,5.4,7,3.7,12.3,5.7
	c2.3-0.7,10.9-4.5,12.5-5.9l-1.4-0.9c-11-1.6-14.8,2.3-23.7-6.8c-4.6-4.7-9.4-11.6-15.4-14.6c-2.9-1.3-5.6-3.1-8.7-3.8L145,262
	c-3-1.2-8.8-1.5-12.2-1.6l-8.8-0.6c2.4,1.6,5.9,1.9,8.7,2.6C136.2,263.3,138.1,264.2,141.4,265.7z"/>
<path class="st18" d="M302.1,292.4c10.8,3.3,19.8,0.4,28.3-6.3c7.1-5.6,9.6-14,18.8-17.9c4.6-2.8,13.3-3.9,18.8-6.2
	c-10.6-2.7-27.5,4.8-35.3,12.3c-4.2,4-7.5,9-11.9,12.8C312.7,294,309.9,290.4,302.1,292.4z"/>
<path class="st16" d="M140.5,213c1.3,2.7,2.1,9.3,4.4,13.1c1,1.7,1.8,1,3.4,2.3c1,3.3-0.7,3.5,2.1,6.2c1.8,1.7,1.4,3,3,5.2
	c4.9,7,1,5.1,5.5,10.5c2.6,3.1,5.3,5.5,8.1,8.4c2.5,2.6,0.2-0.5,2.9,1.1c2,1.1,1.4,1.6,3.6,2.6c-0.5-2.5-1.4-6.4-3.3-8.1l-0.6,0.9
	c-0.8-0.5-3.5-3.3-4.7-4.3c-2.9-2.5-1.5-3-3.2-5.7l-1.5,0.8c-0.3-4.9-2.4-6-3.9-9.7s-2.7-5.9-4.9-9.1c-2.9-4.2-4.8-14.8-6.6-20.2
	C143.1,208.5,141.3,211.1,140.5,213z"/>
<path class="st18" d="M183.9,294.5c-5.3-2-7.4-0.3-12.3-5.7c-2.7-3-5.4-6.8-7.8-10.1c-4.4-6.1-14.7-13.2-22.5-12.9v0.4
	C154.8,269.9,156.9,300.5,183.9,294.5z"/>
<path class="st19" d="M170.3,220c9.7,6.4,10.8,8.6,17.3,13.1c5.3,3.6,16.6,10.1,19.5,0.4c1-3.4,0.5-9.9-4.3-5.3
	C194.7,236,186.8,220.9,170.3,220z"/>
<path class="st19" d="M328.1,222.3c-1.6-3.8-17.4,5.7-19.9,6.9c-11.8,5.8-11.6-3.6-14.9-1.8c-1.6,0.9-1.7,3.8-1.5,5.4
	c2,15,21.6,0.2,27.5-4.6C321.8,226.2,326.6,223.6,328.1,222.3z"/>
<path class="st20" d="M144.8,207.1c1.8,5.4,3.7,16,6.6,20.2c2.2,3.2,3.4,5.5,4.9,9.1c1.5,3.7,3.7,4.7,3.9,9.7l1.5-0.8
	c1.8,2.7,0.3,3.1,3.2,5.7c1.2,1,3.9,3.8,4.7,4.3l0.6-0.9c0-0.4-5.1-14.5-5.5-15.4l-0.5,1.9c-0.2-0.2-2.2-6.3-5.8-8.8
	c-2.8-2-3.3-6.6-4.9-9.7c-1.5-3-3.6-7.1-4-10.9c-0.4-3.7,0.9-1.8-0.5-4.8c-1.2-2.6,1.9-1.6-0.6-3.8
	C146.8,203.9,145.5,205.5,144.8,207.1z"/>
<path class="st21" d="M236.2,337c2,2.3,1.4,2.5,4.7,4.4c8.7,5,17.5-0.6,18.6-3.8C261.6,331,238.4,327.7,236.2,337z"/>
<path class="st22" d="M129.7,230.2c2.3,1.8,1.3,4,3.8,8.7c2.8,5.4-0.1,2,3.5,5.7c1.8,1.9,2.6,4.7,6,7c0.4,4.8,1.9,3.3,2.3,5.6
	c0.3,1.5-0.6,0.8,0.4,2.8c0.5,1.1,0.9,1.1,1.5,2.5c3.1,0.7,5.9,2.4,8.7,3.8l1.5-1.5c-1.9-2.4-2.2-0.9-4-4.2c-1.6-2.9-2.7-1-4-4.1
	c-4.6-10.5-4.5-3.5-6-10.4c-0.6-2.6-1.9-2.1-3.2-5c-0.8-1.8-1.7-4.2-2.4-5.8c-0.5-1-2.6-3.7-3.4-4.8c-2-2.8-0.6-2.5-1-6.1
	C131.7,225.7,130.4,228.1,129.7,230.2z"/>
<path class="st23" d="M241,314.8c-4,2.2-9.1-0.1-12.1,1.4c-3,6.5,13.4,4.7,16.9,4.7s7.6-0.2,11.1,0.1c3.5,0.2,5.9,1.9,9.8,0.3
	c1.1-1.3,1.7-3.4,1.1-5c-1.3-0.3-6,0.6-8.4,0.4c-3.3-0.2-4.1-1-6.6-2.9l-0.7,1.3c-1.3-0.1-0.9,0.4-1.9-0.8c-0.2,1.8-0.2,1.1-1.4,1.9
	c-2.1-1.4-0.8-0.8-1.7-1.9C244.9,317.4,242.1,316.6,241,314.8z"/>
<path class="st24" d="M126,237.3c4.2,5.3,1.3,1.8,2.8,4.6c1.4,2.6,2.7,0.6,3.3,3.7c0.7,3.1,0.1,2.8,2,5.5c1.8,2.6,0,3.4,3.2,4
	c-0.6,2.1,0.2,3.7,1.7,5.2c2.4,0.5,4.6,0,5.9,1.7l2.3,0.4c-0.6-1.4-1-1.4-1.5-2.5c-1-2.1-0.2-1.3-0.4-2.8c-0.4-2.3-1.9-0.8-2.3-5.6
	c-3.3-2.3-4.2-5.1-6-7c-3.6-3.8-0.6-0.3-3.5-5.7c-2.5-4.7-1.4-6.9-3.8-8.7L126,237.3z"/>
<path class="st25" d="M330,240.2l2.9-4.6c-5.1,3.9-17.9,8.7-20,10.8c-2.1,2.2,3.1,4.9,4.9,8c3.2,5.4,1.8,7.3,3.3,12
	C321.6,266,325.1,245.8,330,240.2z"/>
<path class="st25" d="M165.3,237.8l-0.4-0.1c2.1,5.9,3.9,8.9,6.8,14.2c3.1,5.6,2.4,11.9,4.2,15.7c0.2-0.3,1.3-7.9,2.6-10.6
	c1.2-2.5,6.2-6.8,5.7-8.1C183.6,247.7,168.6,240.5,165.3,237.8z"/>
<path class="st13" d="M345,260.7l4.3-1.1c0-2.8,0.8-1.5,1.8-3c1.2-1.8,4.6-7.2,5.1-9.2c1.1-4,1.9-3.2,3.1-6.2c1-2.6,1.6-2.1,1.8-2.6
	c0.3-0.9-0.4-1.8,0.7-3.9c-0.2-1.9-1.2-3.9-2.5-5.3c-2,2.1-1,2.2-1.8,4.6c-0.7,2.1-1.4,1.2-1.8,2.3c-0.6,1.4-0.3,2.9-1.2,4.3
	l-9.3,14.4c-1.4,1.4-2.3-0.1-4.2,1.4l3,0.8l-1.8,2C343.9,261,343.6,259.2,345,260.7z"/>
<path class="st26" d="M123.8,242.4l1.5,0.2c0.4,2.8-0.8,2.2-1.3,4.8c2,1.1,0.6-1.3,1.9,0.9c1.4,2.3,0.4,2.1,1.2,4.4
	c1.9-0.6,0.4-0.4,1.5-1.4l1.4,2.6c-1.5,1-1.3-0.1-1.8,1.4l2.8,0.7l0.5,1.7l3.6,0.3c-2.1,0-1.2-0.3-2.6,0.9l0.2,1.4
	c3.4,0.2,9.1,0.4,12.2,1.6c-1.2-1.7-3.4-1.2-5.9-1.7c-1.4-1.5-2.3-3.1-1.7-5.2c-3.2-0.7-1.4-1.5-3.2-4c-1.9-2.7-1.3-2.5-2-5.5
	c-0.7-3.1-2-1.1-3.3-3.7c-1.5-2.8,1.4,0.7-2.8-4.6L123.8,242.4z"/>
<path class="st22" d="M349.3,259.6l5.2-0.9c0.5-0.8,2.3-2.2,3.3-3.2c2.5-2.5,0.9-0.4,2.6-3.6c1.3-2.3,2.8-6.7,5.5-7.9
	c-0.8-2.6-2.4-7.4-4.1-9.2c-1.1,2.1-0.4,3-0.7,3.9c-0.2,0.5-0.8,0-1.8,2.6c-1.2,3-2,2.1-3.1,6.2c-0.5,2-3.9,7.4-5.1,9.2
	C350.1,258.1,349.3,256.8,349.3,259.6z"/>
<path class="st27" d="M118.8,256.3c0.3,2.8,2.5,3.4,5.1,3.6l8.8,0.6l-0.2-1.4c1.4-1.2,0.5-0.9,2.6-0.9l-3.6-0.3l-0.5-1.7l-2.8-0.7
	c0.5-1.6,0.3-0.4,1.8-1.4l-1.4-2.6c-1.1,1,0.4,0.7-1.5,1.4c-0.8-2.3,0.2-2-1.2-4.4c-1.3-2.2,0.1,0.2-1.9-0.9c0.5-2.6,1.7-2,1.3-4.8
	l-1.5-0.2C122.1,245.2,119.6,253,118.8,256.3z"/>
<path class="st25" d="M268.3,274.3c0.8-4.6-16.5-8.5-18.1-5.7C248.5,271.5,264.1,276.8,268.3,274.3z"/>
<path class="st28" d="M212.7,279.7c-1,1.1-11,4.6-13,5c-1.1,1.6-3.5,0.8-4.7,3l1.4,0.9c3.8-1,8.7-3.3,12.8-4.6
	c3.9-1.2,9.4-3.3,13.3-3.9l0.5-3.5C220.9,278.1,215.5,279.6,212.7,279.7z"/>
<path class="st16" d="M284.9,283.6c1.3,1.4,5.5,3.5,7.5,3.8l4.3-0.4l-1.6-0.9l1.7-0.9l-1-2l2.9-0.7l0.5-1.7l-3.2-3l-0.3,1.7
	c-1.9,0.1-0.7-1.3-2.8-0.1C290.6,280.8,293,281,284.9,283.6z"/>
<path class="st24" d="M354.5,258.6l7.1-0.7c0.6-1.3,1.5-2,2.3-3.7c0.6-1.4,1.3-2.8,2.1-4l1.9-0.3l-2-6c-2.6,1.2-4.2,5.6-5.5,7.9
	c-1.8,3.2-0.1,1.1-2.6,3.6C356.8,256.5,355,257.9,354.5,258.6z"/>
<path class="st16" d="M201.4,275.9c-1.8,2.1-2.3,4.2-4.7,6.7l1.1,2.2l1.6-1.7l0.4,1.7c2-0.4,12-3.9,13-5c-3.3,0.3-3.1,0-6-1
	c-3.3-1.1-2.1-0.9-3.1-3.5l-2.1,2.4L201.4,275.9z"/>
<path class="st25" d="M297.1,266.8c1.5,4.5,9.4,2.9,7.6-3.2C303.3,258.7,295.2,260.7,297.1,266.8z"/>
<path class="st25" d="M194.4,262.7c-4.8,0.8-4.5,8.8,0.5,8.5C200.4,270.9,199.1,261.9,194.4,262.7z"/>
<path class="st12" d="M134.7,109.1c-0.2,2.6,0.4,5.2,0,8.6c-0.9,8.2,9.4,4.5,3.8-2.8C137.1,113,135.8,110.4,134.7,109.1z"/>
<path class="st29" d="M241,314.8c1.1,1.9,3.9,2.6,5.9-0.6c1,1.1-0.3,0.5,1.7,1.9c1.2-0.8,1.3-0.1,1.4-1.9c1,1.2,0.7,0.7,1.9,0.8
	l0.7-1.3c-2.4-2-2.7-4.9-4-5.8c-1,0.8-1.4,2.7-2.6,4.1C244.6,313.7,243.1,314.2,241,314.8z"/>
<path class="st26" d="M361.6,257.9l8.6-0.2l-2.3-7.8l-1.9,0.3c-0.8,1.2-1.5,2.6-2.1,4C363.1,255.9,362.2,256.6,361.6,257.9z"/>
<path class="st30" d="M132.3,337c-1.1-1.7-2.9-2.8-4.5-4C128.6,334.8,130.3,336.6,132.3,337z"/>
<path class="st31" d="M102.2,272.8l-1.9-1l3.7,3l-1.8-3.4V272.8z"/>
<path class="st32" d="M139,342.8l-3.5-3C136.3,341.6,137.1,342.4,139,342.8z"/>
</svg>
