<?xml version="1.0" encoding="utf-8"?>
<!-- Generator: Adobe Illustrator 26.0.2, SVG Export Plug-In . SVG Version: 6.00 Build 0)  -->
<svg version="1.1" id="Capa_1" xmlns="http://www.w3.org/2000/svg" xmlns:xlink="http://www.w3.org/1999/xlink" x="0px" y="0px"
	 viewBox="0 0 450.2 450.2" style="enable-background:new 0 0 450.2 450.2;" xml:space="preserve">
<style type="text/css">
	.st0{fill-rule:evenodd;clip-rule:evenodd;fill:url(#SVGID_1_);}
	.st1{fill-rule:evenodd;clip-rule:evenodd;fill:#373435;}
	.st2{fill-rule:evenodd;clip-rule:evenodd;fill:url(#SVGID_00000080190058796529786620000015507771123185413788_);}
	.st3{fill-rule:evenodd;clip-rule:evenodd;fill:url(#SVGID_00000012434956564819545460000012632604931814468246_);}
	.st4{fill-rule:evenodd;clip-rule:evenodd;fill:url(#SVGID_00000163793057131191537740000015090834819231163070_);}
	.st5{fill-rule:evenodd;clip-rule:evenodd;fill:url(#SVGID_00000108287065198568202940000014340292997455241919_);}
	.st6{fill-rule:evenodd;clip-rule:evenodd;fill:url(#SVGID_00000179641057615408531780000017992568497451451318_);}
	.st7{fill-rule:evenodd;clip-rule:evenodd;fill:#2ED8A7;}
</style>
<linearGradient id="SVGID_1_" gradientUnits="userSpaceOnUse" x1="0" y1="198.7898" x2="450.2" y2="198.7898" gradientTransform="matrix(1 0 0 -1 0 423.8898)">
	<stop  offset="0.459" style="stop-color:#10E9AA"/>
	<stop  offset="1" style="stop-color:#16DAD3"/>
</linearGradient>
<circle class="st0" cx="225.1" cy="225.1" r="225.1"/>
<circle class="st1" cx="224.6" cy="225.1" r="210.8"/>
<linearGradient id="SVGID_00000158004594857043437410000008710866430174442672_" gradientUnits="userSpaceOnUse" x1="188.6373" y1="482.1817" x2="307.7645" y2="-75.4911" gradientTransform="matrix(1 0 0 -1 0 423.8898)">
	<stop  offset="0" style="stop-color:#1FE4AB"/>
	<stop  offset="1" style="stop-color:#16DAD3"/>
</linearGradient>
<path style="fill-rule:evenodd;clip-rule:evenodd;fill:url(#SVGID_00000158004594857043437410000008710866430174442672_);" d="
	M65.1,106.6h202.5c14.5,0,15.1,1.3,26-11.8l10.5-10.6c4.7-3.6,11-2.8,14.9,1c4.2,4.2,13.2,15.9,17.4,18.9c4.8,3.4,14.6,2.4,21.9,2.4
	c8.1,0,16.2,0,24.3,0c-0.6-2-7.6-10.3-9.4-12c-2.6-2.6-8-9.3-10.5-11.3c-1.7-1.4-2.4-2-3.9-3.6l-3.9-3.5c-7.9-7.7-24.9-19-34-24.2
	c-26.3-14.7-60.6-25-91.2-25c-25.5,0-37.4,1-61.9,7.8c-7.1,2-14.6,4.9-21.2,7.7c-3.5,1.5-6.6,2.8-10,4.5
	c-7.5,3.8-11.6,6.1-18.8,10.5c-1.5,1-2.6,1.8-4.2,2.8c-1.6,1.1-2.9,1.9-4.5,3l-20,16.3c-1.3,1.3-2.4,2.5-3.8,3.6
	C82.3,85.4,65.9,103.7,65.1,106.6z"/>
<linearGradient id="SVGID_00000176734114877611835110000005979916051708115879_" gradientUnits="userSpaceOnUse" x1="23.2" y1="135.9398" x2="419" y2="135.9398" gradientTransform="matrix(1 0 0 -1 0 423.8898)">
	<stop  offset="0" style="stop-color:#27FFFF"/>
	<stop  offset="1" style="stop-color:#00AEC9"/>
</linearGradient>
<path style="fill-rule:evenodd;clip-rule:evenodd;fill:url(#SVGID_00000176734114877611835110000005979916051708115879_);" d="
	M226.3,262.1c-7.8,0-11.3-7.1-15.9-11.6c-2.3-2.3-7.6-9.1-9.9-10.8c-3.7-2.7-9.7-2.6-13.2-0.1l-1.6,1.3c0,0.1-0.1,0.1-0.2,0.2
	l-7.2,8.1c-5.1,6.1-10.8,13-20.1,13H77.5v-28.6l-54.3,54.9l54.3,53.8v-30.2c0.1,0,0.1,0,0.2,0H136c4,0,7.5-2.3,9.3-4.7l13.6-14.4
	c4.9-4.9,5.2-5.2,11.7-5.2c4.1,0,6.3,2.9,8.4,5.2l11.5,12.8c0.8,0.9,0.8,1.2,1.7,2.1c2.3,2.3,6.3,4.2,9.8,4.2h200
	c1.6,0,1.9-2.4,3.2-5.1c1.9-3.9,5.7-14,7.1-18c1.3-4,2.6-8.6,3.8-12.7c0.7-2.7,2.9-11.6,2.9-14H226.3V262.1z"/>
<linearGradient id="SVGID_00000041263303957219366440000013934923498701803660_" gradientUnits="userSpaceOnUse" x1="136.7845" y1="471.1051" x2="255.9118" y2="-86.5676" gradientTransform="matrix(1 0 0 -1 0 423.8898)">
	<stop  offset="0" style="stop-color:#10E9AA"/>
	<stop  offset="1" style="stop-color:#16DAD3"/>
</linearGradient>
<path style="fill-rule:evenodd;clip-rule:evenodd;fill:url(#SVGID_00000041263303957219366440000013934923498701803660_);" d="
	M78.7,360.6c0.4,1.6,1.7,2.4,2.8,3.4c1.2,1.2,2.1,2.1,3.3,3.3l9.9,9.1c6.6,6.1,18.9,14.6,26.3,19.1c5.5,3.4,10.9,6.1,16.9,9.1
	c51.9,26,120.3,26,172.1,0c17.4-8.7,26-14.3,40.9-26.3l15.2-14.1c1.1-1.1,2.5-1.9,3-3.6c-70.8,0-141.6,0-212.4,0
	c-13,0-13.6,0.1-19.7-6.7l-9.9-11.1c-2.8-2.9-3.6-5.5-9.5-6.6c-8.6-1.7-12.8,7.3-18.3,12.8C93.9,354.3,90.9,360.6,78.7,360.6z"/>
<linearGradient id="SVGID_00000039102491449118961040000008810155036386836621_" gradientUnits="userSpaceOnUse" x1="25.9" y1="238.2398" x2="432.8" y2="238.2398" gradientTransform="matrix(1 0 0 -1 0 423.8898)">
	<stop  offset="0" style="stop-color:#27FFFF"/>
	<stop  offset="1" style="stop-color:#00AEC9"/>
</linearGradient>
<path style="fill-rule:evenodd;clip-rule:evenodd;fill:url(#SVGID_00000039102491449118961040000008810155036386836621_);" d="
	M432.8,186.4l-54.3-54.9v28.7l-74.2-0.5c-3.6,0-7.1,0.1-10.2-0.6c-6.1-1.5-8.1-6-11.8-9.7c-6.8-6.7-9.7-14.5-18.9-14.5
	c-5.2,0-10.2,6.1-13.4,10.1c-2.4,3.1-8.8,10-11.8,11.7c-3.2,1.9-7.7,2.9-12.7,2.9c-62.8-0.3-126.5,0-189.3,0c-0.5,2-1.2,3.6-1.8,5.6
	c-3.8,12.8-6.3,23.3-7.7,36.8c-0.2,1.7-0.8,4.8-0.8,6.7h181.9c4.7,0,6.8-2.4,9.2-4.9l10.3-10.7c4.9-4.9,5.6-8.8,14.3-8.8
	c6,0,10.7,7.7,15,12.3c0.6,0.6,1,1,1.7,1.6c3.6,4.2,7.6,10.4,13.9,10.4l106.4-0.5v31.7L432.8,186.4z"/>
<path class="st1" d="M260.3,136.7l-7.6-2.4c-14.8-3.3-31-3.4-45.7,0.3c-2.9,0.8-5.8,1.7-8.6,2.6c-2.6,0.9-5.8,1.9-8.2,3.1
	c-3.6-5.6-7.4-10-11.2-15l-7.5-8.6c-1.5-2-2.6-3.1-4.9-4.8c-11.3-8.6-28.3-5-36.3,8.2c-8.1,13.4-9.4,32.9-9.4,49.9
	c0,3.6-0.3,9.3,0.1,12.7c0.5,3.7-0.1,8.8,0.4,12.8c0.3,1.9,0.3,3.8,0.3,6.3c0,5.9-1.7,6.5-5.2,14.6c-7.4,17.4-14.6,46.1-6,66.3
	c6.8,15.7,16.9,25.9,30.6,35.8c20.7,15,68,35.8,97.3,31.1c31-4.9,70.3-19.8,91.1-41.2c7.9-8,13.7-15,17.5-26.7
	c4-12.1,3.3-26,0.8-39.5c-2.3-12.5-6.3-23-10.9-33.4c-1.3-2.9,0.3-16.7,0.3-21l-0.6-43.2c-1-7.3-0.8-11.6-2.6-19.8
	c-2.5-11.2-7-24.5-18.6-26C298.1,108,261.2,136.7,260.3,136.7z"/>
<linearGradient id="SVGID_00000028311222312408369900000011257393017412115596_" gradientUnits="userSpaceOnUse" x1="677.9272" y1="199.537" x2="678.4272" y2="199.537" gradientTransform="matrix(1 0 0 -1 0 423.8898)">
	<stop  offset="0.459" style="stop-color:#10E9AA"/>
	<stop  offset="1" style="stop-color:#16DAD3"/>
</linearGradient>
<path style="fill-rule:evenodd;clip-rule:evenodd;fill:url(#SVGID_00000028311222312408369900000011257393017412115596_);" d="
	M265,150.2l-14-4c-13.7-2.9-28.5-2.9-42.1,0.3c-2.6,0.6-5.3,1.5-7.9,2.3c-2.4,0.8-5.4,1.6-7.5,2.6c-3.3-4.8-6.8-8.6-10.3-13.1
	l-6.9-7.5c-1.4-1.7-7.9-7.2-10.1-8.7c-10.4-7.4-20.4-8.8-27.8,2.6c-7.5,11.6-8.6,37.5-8.6,52.3c0,3.1-0.3,8.1,0.1,11.1
	c0.5,3.2-0.1,7.7,0.4,11.1c0.2,1.7,0.3,3.3,0.3,5.5c0.1,5.2-1.6,5.7-4.7,12.7c-6.8,15.1-13.5,40-5.6,57.6
	c6.3,13.6,15.6,22.5,28.1,31.1c19.1,13,62.5,31.1,89.5,27c28.5-4.3,64.7-17.3,83.8-35.8c7.2-7,12.6-13.1,16.1-23.2
	c3.7-10.6,3-22.6,0.7-34.4c-2-10.8-5.8-20-10-29c-1.3-2.6,0.3-14.6,0.3-18.3l-0.6-37.5c-1-6.3-0.8-10.2-2.4-17.2
	c-2.4-9.7-6.4-21.3-17.1-22.6C290.4,113,265.7,150.2,265,150.2z"/>
<path class="st1" d="M214.7,245.9c-2,8.5,7.7,12.6,15.4,13.4c-2.7,4.9-10.9,9.4-19.4,6.4c-3.2-1.1-5.9-3.6-7.6-5.9
	c-1.8-2.6-2.9-8-7.2-4c-1,4.2,3,8.5,4.9,10.3c1.5,1.5,2.2,2.3,4.2,3.5c1.8,1,4,1.5,5.4,2.6c0.1,28.7,24.9,36.8,36.4,20.3
	c4.2-6,4.4-11.4,5.4-19.6c3.1-2.2,6.1-0.5,13.1-7.9c1.2-1.3,4.7-4.9,2.3-7.2c-3-3.1-5.4,1.6-6.5,3c-8.6,9.7-20.8,7.7-28.8-1.4
	c8-0.8,16.7-4.3,15.7-13C244.3,233.4,218.8,233.8,214.7,245.9z"/>
<path class="st1" d="M169.6,209.3c1,2.2,4.5,5.9,5.8,7.7c-7,3.6-10.5,7.9-10.5,17.2c0,8.2,5.2,16.5,13,16.6
	c8.2,0.1,13.6-9.5,13.2-17.5l-0.6-5.4c4,0.6,6.7,0.8,7.7-3.1c-3.6-2.4-4.1,0.3-14.3-7.7c-2.2-1.7-4.1-3.5-6.2-5.1
	C176.2,210.8,172.2,207.8,169.6,209.3z"/>
<path class="st1" d="M270.1,224.7c0.8,3.1,1.9,3.5,5.5,3.5c-2.6,20.1,10.7,26.7,19.4,20.1c6.9-5.2,9.1-20,0.6-28.3
	c-1.3-1.2-1.9-1.4-3.3-2.4c1.7-2.8,4.6-4.9,6.3-8.1c-5.6-0.9-8.1,2.5-13.9,7.3c-3.9,3.2-7.2,5.8-12.2,7.2l-2,0.7
	C270.3,224.5,270.2,224.6,270.1,224.7z"/>
<path class="st1" d="M222.7,290.4c3.2,5.9,16.2,5.9,18-0.6c-2.9-1.3-4.4-3.3-9.2-3.2C228.6,286.7,224.3,288,222.7,290.4z"/>
<path class="st1" d="M231.9,241.4c0.1,1.3-0.5,1.5,3.4,2.8c1.5,0.5,5.1,1.3,5.6-0.2C241.7,242.2,234.5,239.8,231.9,241.4z"/>
<path class="st7" d="M223.7,292.4c3.2,5.9,16.1,5.9,17.9-0.6c-2.9-1.3-4.4-3.2-9.2-3.1C229.6,288.7,225.2,290,223.7,292.4z"/>
<path class="st1" d="M153.2,180c16.3-18.6,19.7-16.9,19.7-16.9c0.8-0.8-14.3-1.5-17.8-16.2c-0.1,0,2.6,9.3,0.5,19.4
	S145.7,188.7,153.2,180z"/>
<path class="st1" d="M306.5,146.1c-16.3,18.6-19.7,17-19.7,17c-0.8,0.8,14.3,1.5,17.8,16.1c0.1,0-2.6-9.3-0.5-19.4
	C306.2,149.8,314,137.5,306.5,146.1z"/>
<ellipse transform="matrix(0.9996 -2.878041e-02 2.878041e-02 0.9996 -6.6884 5.324)" class="st7" cx="181.6" cy="235" rx="1.9" ry="5.2"/>
<ellipse transform="matrix(0.9996 -2.878041e-02 2.878041e-02 0.9996 -6.6462 8.251)" class="st7" cx="283.3" cy="235" rx="1.9" ry="5.2"/>
</svg>
