<svg width="200" height="201" viewBox="0 0 200 201" fill="none" xmlns="http://www.w3.org/2000/svg">
<rect y="1.11365" width="199.084" height="199.772" fill="#C89514"/>
<g opacity="0.78">
<path d="M152.12 15.3566C154.014 16.5032 155.879 17.7404 157.683 19.0077C158.134 19.1284 158.555 19.2793 158.976 19.4L166.132 25.7065C168.057 27.4264 169.951 29.2067 171.755 31.1077L175.754 35.483L175.093 38.7419L174.942 39.4661L174.792 40.1903L174.13 43.5396L174.04 43.9621L172.838 49.9366L172.176 53.1955L171.575 56.1526L169.861 64.692V75.2229L164.899 86.9307L160.569 97.0995L161.291 119.399L160.569 141.637C160.569 141.637 159.487 150.784 152.12 159.564C144.031 169.19 130.651 170.816 127.072 170.816C125.779 170.816 124.065 170.816 122.201 170.756H122.051C121.991 170.756 121.961 170.756 121.901 170.756C117.661 170.665 112.459 170.424 108.43 169.941C104.881 169.518 102.235 168.885 101.844 167.98C101.333 166.712 98.7173 168.915 94.9286 170.605C92.3426 171.782 89.1854 172.717 85.7575 172.144C85.6974 172.144 85.6372 172.113 85.5771 172.113C85.517 172.113 85.4869 172.083 85.4268 172.083C84.2541 171.872 83.0513 171.45 81.8485 170.816C85.7575 172.144 63.1155 166.36 63.1155 166.36C63.1155 166.36 42.3077 156.211 40.684 141.637C39.0603 127.063 39.0603 99.5135 39.0603 99.5135L38.4288 97.6728L31.7836 78.0292L31.0018 70.1536L29.2878 53.0144L28.9871 49.8461L28.6564 46.6174L28.1452 41.5481L28.0249 40.2808L27.8445 38.5307L36.6247 32.4354L46.4573 24.0167L52.6214 20.3354L56.6807 17.2576C59.0562 19.4905 61.3414 22.9002 63.1155 24.59C65.6413 26.9738 67.3252 28.573 67.3252 28.573L67.8063 29.1162L72.016 33.8234L74.211 36.2676L81.8485 44.807H121.419L128.275 38.078L130.621 35.7848L135.161 31.3189L139.611 26.9436L143.009 23.5942L146.978 19.6715L148.903 17.7706L149.293 17.3783L149.744 16.9558L149.925 16.7748L151.669 15.0548L152.12 15.3566Z" fill="black"/>
</g>
<path d="M83.5324 169.066C83.5324 169.066 98.0257 195.318 122.682 170.333C122.682 170.303 110.625 163.212 83.5324 169.066Z" fill="#E0E2D5"/>
<path d="M122.712 170.212C122.712 170.212 122.592 170.122 122.352 170.031C121.51 169.609 119.194 168.613 115.315 167.798C112.218 167.135 108.099 166.622 102.927 166.652H102.897C102.807 166.652 102.716 166.652 102.626 166.652C102.536 166.652 102.416 166.652 102.326 166.652C97.1236 166.742 90.8692 167.346 83.5625 168.945L83.4121 168.975L83.4722 169.096C83.4722 169.126 83.8631 169.79 84.5848 170.786C84.8554 171.178 85.2163 171.631 85.6071 172.144C86.2687 172.988 87.1106 173.924 88.0728 174.859C89.6665 176.428 91.6811 178.028 94.0566 179.204C95.7705 180.08 97.6648 180.713 99.7697 181.015C100.582 181.136 101.393 181.196 102.205 181.196C105.242 181.196 108.369 180.411 111.527 178.873C115.075 177.153 118.683 174.467 122.352 170.816C122.502 170.665 122.652 170.544 122.773 170.394L122.863 170.303L122.712 170.212ZM110.835 178.963C107.046 180.713 103.348 181.347 99.7396 180.834C97.8453 180.562 96.1313 180.019 94.5677 179.265C92.072 178.088 89.9672 176.459 88.2833 174.829C87.3512 173.924 86.5393 173.019 85.8778 172.204C85.4869 171.721 85.1561 171.269 84.8554 170.846C84.254 170.001 83.8631 169.368 83.7128 169.126C90.9294 167.587 97.0935 166.954 102.265 166.863C102.386 166.863 102.476 166.863 102.596 166.863C102.686 166.863 102.777 166.863 102.897 166.863C102.987 166.863 103.047 166.863 103.137 166.863C108.039 166.833 111.978 167.316 114.985 167.919C118.683 168.674 120.998 169.609 122.021 170.092C122.261 170.212 122.442 170.303 122.532 170.333C122.382 170.484 122.201 170.665 122.051 170.816C118.232 174.558 114.504 177.273 110.835 178.963Z" fill="black"/>
<path d="M97.6949 121.45C97.6949 121.45 75.083 137.262 77.9095 150.629C80.736 163.996 81.5478 170.876 85.1862 170.876C88.8246 170.876 98.1159 171.691 101.935 168.04L103.739 160.345C103.739 160.345 94.0566 171.751 122.321 170.062C122.321 170.062 135.943 154.673 122.321 137.352C108.7 120.032 105.784 109.712 105.784 109.712L106.986 95.9528C106.986 95.9528 111.587 93.9311 103.017 82.1932L101.935 55.4586L97.6949 86.2366L91.651 98.7892C91.651 98.7591 105.423 115.114 97.6949 121.45Z" fill="#F4F4F5"/>
<path d="M102.055 160.436C111.803 160.436 119.705 154.654 119.705 147.521C119.705 140.389 111.803 134.607 102.055 134.607C92.3068 134.607 84.4044 140.389 84.4044 147.521C84.4044 154.654 92.3068 160.436 102.055 160.436Z" fill="#262626"/>
<path d="M102.055 163.966C106.173 163.966 109.512 160.616 109.512 156.483C109.512 152.35 106.173 149 102.055 149C97.9365 149 94.5978 152.35 94.5978 156.483C94.5978 160.616 97.9365 163.966 102.055 163.966Z" fill="#1E1E1D"/>
<path d="M89.6364 140.581C89.3658 140.822 89.1252 141.064 88.8847 141.335C88.7043 141.547 88.4036 141.818 88.3735 142.09C88.2532 142.663 88.9749 142.754 89.3959 142.693C89.877 142.633 90.3581 142.361 90.6287 141.939C90.8692 141.577 90.9895 141.004 90.6888 140.641C89.9672 139.797 88.584 141.366 89.4861 141.969C89.8168 142.18 90.3581 142.12 90.5084 141.698C90.6888 141.215 90.0273 141.034 89.6665 141.185C89.1252 141.426 89.1553 142.12 89.5161 142.512C89.9672 143.025 90.8993 143.116 91.5308 143.297C91.7713 143.357 92.0419 143.025 91.8014 142.814C91.4406 142.512 91.0497 142.21 90.6888 141.909C90.5986 142.06 90.5084 142.211 90.4182 142.392C90.8692 142.512 91.3203 142.633 91.7713 142.754C92.0419 142.814 92.4028 142.965 92.6433 142.723C92.8237 142.542 92.8237 142.241 92.6734 142.029C92.4629 141.728 91.9517 141.758 91.8014 141.486C91.7412 141.637 91.6811 141.758 91.621 141.909C91.8315 141.879 92.0119 142.09 92.0119 142.301C92.0119 142.512 91.8615 142.663 91.6811 142.754C91.2902 142.935 90.6888 142.693 90.779 142.21C90.779 142.15 90.8692 141.909 90.9594 141.969C91.0196 141.999 91.0497 142.18 91.0497 142.21C91.1098 142.361 91.1699 142.542 91.2601 142.693C91.4406 143.025 91.7112 143.327 91.9818 143.568C93.3349 144.685 95.1691 144.594 96.8229 144.443C97.0635 144.413 97.2439 144.051 96.9733 143.93C96.0411 143.508 95.0188 143.206 93.9964 143.055C93.6957 143.025 93.365 143.025 93.1846 143.297C93.1545 143.357 93.1244 143.448 93.1244 143.508C93.0944 143.629 93.1244 143.629 93.2146 143.508C93.1846 143.478 93.1545 143.478 93.1244 143.448C92.9139 143.236 92.7335 143.086 92.6132 142.784C92.4629 142.905 92.3126 143.025 92.1622 143.116C93.0944 144.232 94.5978 144.262 95.9208 144.202C96.2817 144.202 96.2817 143.629 95.9208 143.629C94.7482 143.659 93.395 143.689 92.5531 142.693C92.3426 142.422 91.9818 142.754 92.1021 143.025C92.2825 143.417 92.5832 143.84 93.0041 143.991C93.1545 144.051 93.3349 144.051 93.4552 143.961C93.5153 143.9 93.5755 143.84 93.6055 143.78C93.6356 143.749 93.6356 143.568 93.6657 143.538C93.7859 143.448 94.237 143.599 94.3272 143.599C94.5677 143.659 94.8083 143.689 95.0789 143.749C95.6201 143.9 96.1614 144.081 96.6726 144.323C96.7327 144.142 96.7628 143.961 96.8229 143.81C95.7104 143.9 94.5377 144.021 93.4552 143.659C93.0041 143.508 92.5531 143.267 92.1923 142.935C92.0419 142.784 91.8916 142.603 91.7713 142.422C91.621 142.18 91.5909 141.939 91.5007 141.698C91.3503 141.366 90.9594 141.275 90.6287 141.456C90.2679 141.667 90.1476 142.12 90.2378 142.512C90.4483 143.357 91.5308 143.599 92.1622 143.055C92.9139 142.452 92.4629 141.185 91.4406 141.366C91.2601 141.396 91.2 141.637 91.2601 141.788C91.3203 141.939 91.4405 142.06 91.5909 142.12C91.651 142.15 91.7412 142.18 91.8315 142.21C91.9217 142.241 91.9818 142.271 92.072 142.301C92.2223 142.331 92.2524 142.331 92.1321 142.301C91.621 142.12 91.0497 142.029 90.5084 141.879C90.2679 141.818 89.9972 142.15 90.2378 142.361C90.5986 142.663 90.9895 142.965 91.3503 143.267C91.4406 143.116 91.5308 142.965 91.621 142.784C91.1699 142.663 90.7189 142.573 90.2979 142.422C90.1175 142.361 89.907 142.271 89.8168 142.09C89.7567 141.999 89.7266 141.848 89.7868 141.758C89.8469 141.698 89.9371 141.698 89.9972 141.758C89.9672 141.667 89.9371 141.577 89.9371 141.486C89.907 141.637 89.6966 141.547 89.6966 141.396C89.6966 141.245 89.9972 140.883 90.1777 141.003C90.5084 141.215 89.9972 141.818 89.8469 141.939C89.6965 142.06 89.5462 142.12 89.3658 142.15C89.2756 142.18 89.1854 142.18 89.0651 142.18C89.005 142.18 88.9749 142.18 88.9147 142.15C88.8546 142.12 88.8546 142.12 88.9448 142.15C89.035 141.939 89.3056 141.698 89.456 141.516C89.6364 141.335 89.8168 141.154 89.9972 141.003C90.2979 140.762 89.907 140.34 89.6364 140.581Z" fill="white"/>
<path d="M96.9733 143.629C97.0936 143.357 97.2138 142.905 97.5145 142.814C97.8453 142.693 98.2663 142.693 98.597 142.663C99.3187 142.603 100.04 142.573 100.762 142.603C102.205 142.633 103.619 142.874 105.032 143.267C105.062 143.086 105.092 142.905 105.092 142.724C102.416 142.784 99.7697 142.814 97.0936 142.724C97.1236 142.905 97.1537 143.086 97.1537 143.267C98.6271 142.844 100.191 142.995 101.694 143.267C101.754 143.086 101.784 142.905 101.844 142.724C99.92 142.422 97.8453 142.15 96.0712 143.176C95.8908 143.267 95.8908 143.478 96.0111 143.629C96.2817 143.931 96.6425 144.021 97.0334 144.051C97.5747 144.081 98.1159 144.051 98.6572 144.051C99.8298 144.051 100.972 144.051 102.145 144.051C102.506 144.051 102.506 143.478 102.145 143.478C101.123 143.478 100.1 143.478 99.0781 143.478C98.5669 143.478 98.0558 143.478 97.5446 143.478C97.1537 143.478 96.6726 143.538 96.402 143.206C96.3719 143.357 96.3719 143.508 96.3418 143.659C97.9656 142.724 99.92 142.995 101.694 143.267C102.055 143.327 102.205 142.784 101.844 142.724C100.251 142.422 98.597 142.271 97.0334 142.724C96.7327 142.814 96.7929 143.267 97.0936 143.267C99.7697 143.327 102.416 143.327 105.092 143.267C105.393 143.267 105.483 142.814 105.152 142.724C103.588 142.271 101.965 142.03 100.341 142.03C99.5291 142.03 98.7173 142.06 97.9054 142.18C97.6047 142.211 97.2138 142.211 96.9733 142.422C96.7027 142.633 96.5824 143.055 96.4621 143.357C96.3118 143.659 96.7929 143.961 96.9733 143.629Z" fill="white"/>
<path d="M102.446 144.051C102.807 144.051 102.807 143.478 102.446 143.478C102.085 143.478 102.085 144.051 102.446 144.051Z" fill="white"/>
<path d="M100.371 143.387C100.01 143.236 99.6494 143.086 99.2886 142.935C98.9578 142.814 98.597 142.603 98.2362 142.542C97.5747 142.482 97.4845 143.448 96.7628 143.236C96.7327 143.418 96.7027 143.599 96.7027 143.78C99.1984 143.81 101.664 143.87 104.16 143.9C104.16 143.719 104.16 143.538 104.16 143.327C103.558 143.357 102.957 143.357 102.356 143.387C102.085 143.387 101.935 143.78 102.205 143.9C103.829 144.655 105.633 144.866 107.347 144.443C107.558 144.383 107.618 144.112 107.467 143.961C106.475 143.086 105.272 142.603 103.949 142.542C103.679 142.542 103.558 142.935 103.799 143.055C104.37 143.327 104.942 143.599 105.513 143.87C105.543 143.689 105.543 143.538 105.573 143.357C104.972 143.568 104.34 143.599 103.709 143.478C103.348 143.417 103.198 143.93 103.558 144.021C104.31 144.232 105.092 144.323 105.844 144.293C106.325 144.262 107.257 144.293 107.467 143.689C107.678 143.086 106.776 142.784 106.355 142.633C105.663 142.361 104.942 142.271 104.22 142.301C104.25 142.482 104.28 142.663 104.28 142.844C105.122 142.573 106.114 142.271 106.986 142.603C107.197 142.663 107.377 142.784 107.528 142.935C107.798 143.206 107.528 143.478 107.287 143.659C106.866 143.961 106.355 144.021 105.874 143.87C105.904 144.051 105.904 144.202 105.934 144.383C106.656 144.051 107.407 143.9 108.219 143.93C108.49 143.961 108.61 143.538 108.369 143.417C107.618 143.025 106.866 142.633 106.114 142.241C106.084 142.422 106.084 142.573 106.054 142.754C107.227 142.512 108.43 142.784 109.422 143.448C109.422 143.297 109.422 143.116 109.422 142.965C108.82 143.297 108.159 143.417 107.467 143.297C107.467 143.478 107.467 143.659 107.467 143.84C108.249 143.719 109.001 143.749 109.783 143.84C109.723 143.659 109.692 143.478 109.632 143.327C109.452 143.448 109.121 143.689 108.881 143.538C108.58 143.357 109.151 143.146 109.302 143.116C109.753 143.055 110.174 143.236 110.595 143.387C111.316 143.629 112.158 143.78 112.79 143.206C112.88 143.116 112.91 142.905 112.79 142.814C111.557 141.758 109.873 141.788 108.309 141.909C107.979 141.939 107.948 142.331 108.249 142.452C109.392 142.935 110.625 143.176 111.888 143.146C112.248 143.146 112.248 142.573 111.888 142.573C111.617 142.573 111.376 142.573 111.106 142.573C110.745 142.573 110.745 143.146 111.106 143.146C111.376 143.146 111.617 143.146 111.888 143.146C111.888 142.965 111.888 142.784 111.888 142.573C110.685 142.603 109.512 142.361 108.4 141.909C108.369 142.09 108.339 142.271 108.339 142.452C109.692 142.361 111.286 142.241 112.399 143.176C112.399 143.055 112.399 142.905 112.399 142.784C111.918 143.236 111.166 142.935 110.595 142.754C110.023 142.573 109.392 142.392 108.82 142.633C108.369 142.814 108.009 143.297 108.339 143.749C108.73 144.293 109.422 144.051 109.873 143.749C110.113 143.599 109.993 143.267 109.723 143.236C108.911 143.116 108.099 143.146 107.257 143.267C106.986 143.297 106.986 143.78 107.257 143.81C108.099 143.961 108.911 143.81 109.632 143.417C109.843 143.297 109.813 143.055 109.632 142.935C108.52 142.18 107.167 141.909 105.844 142.18C105.603 142.241 105.573 142.573 105.784 142.693C106.535 143.086 107.287 143.478 108.039 143.87C108.099 143.689 108.129 143.508 108.189 143.357C107.287 143.297 106.445 143.478 105.633 143.87C105.393 143.991 105.483 144.323 105.693 144.383C106.355 144.594 107.076 144.474 107.648 144.051C108.219 143.629 108.46 143.025 107.888 142.482C106.866 141.547 105.302 141.909 104.13 142.271C103.829 142.361 103.889 142.844 104.19 142.814C104.701 142.784 105.182 142.844 105.663 142.965C105.874 143.025 106.114 143.086 106.295 143.176C106.415 143.236 106.535 143.297 106.625 143.357C106.716 143.418 106.866 143.448 106.746 143.538C106.595 143.659 106.204 143.659 106.024 143.659C105.753 143.689 105.483 143.689 105.242 143.689C104.701 143.689 104.16 143.599 103.619 143.448C103.558 143.629 103.528 143.81 103.468 143.991C104.19 144.112 104.912 144.081 105.633 143.87C105.844 143.81 105.934 143.478 105.693 143.357C105.122 143.086 104.551 142.814 103.979 142.542C103.919 142.723 103.889 142.905 103.829 143.055C104.972 143.116 106.084 143.538 106.956 144.323C106.986 144.172 107.046 144.021 107.076 143.84C105.513 144.232 103.829 144.081 102.356 143.357C102.296 143.538 102.265 143.719 102.205 143.87C102.807 143.84 103.408 143.84 104.009 143.81C104.37 143.81 104.37 143.267 104.009 143.236C101.514 143.206 99.048 143.146 96.5523 143.116C96.2216 143.116 96.1915 143.568 96.4922 143.659C96.7628 143.749 97.0034 143.749 97.274 143.629C97.5747 143.508 97.6649 143.327 97.8753 143.116C98.146 142.844 98.6571 143.206 98.9278 143.327C99.3187 143.478 99.7096 143.629 100.07 143.78C100.552 144.051 100.702 143.508 100.371 143.387Z" fill="white"/>
<path d="M112.699 141.818C113.511 141.607 114.173 142.331 114.443 143.025C114.594 143.418 114.684 143.87 114.774 144.293C114.864 144.715 115.015 145.168 115.015 145.62C115.015 145.711 115.015 145.892 114.955 145.952C114.834 146.043 114.714 145.892 114.624 145.801C114.353 145.469 114.203 145.017 114.022 144.655C113.842 144.232 113.662 143.81 113.511 143.357C113.421 143.146 113.361 142.935 113.301 142.693C113.271 142.573 113.241 142.482 113.211 142.361C113.211 142.331 113.181 142.241 113.15 142.18C113.15 142.15 113.15 142.15 113.12 142.12C113.03 142.15 113 142.18 113.06 142.18C113.06 142.211 113.241 142.301 113.271 142.331C113.361 142.422 113.421 142.512 113.481 142.603C113.602 142.784 113.722 142.995 113.812 143.206C113.992 143.629 114.083 144.112 114.053 144.564C114.233 144.504 114.413 144.474 114.564 144.413C114.293 143.81 114.053 143.176 113.782 142.573C113.722 142.392 113.451 142.392 113.331 142.512C112.94 142.905 113.211 143.417 113.361 143.84C113.602 144.413 113.872 145.017 114.173 145.59C114.233 145.711 114.443 145.771 114.564 145.681C114.955 145.409 115.225 144.775 114.864 144.353C114.714 144.172 114.413 144.142 114.263 144.353C114.113 144.594 114.293 144.866 114.534 144.866C114.894 144.896 114.894 144.323 114.534 144.293H114.504C114.594 144.353 114.654 144.383 114.744 144.443C114.744 144.474 114.744 144.534 114.774 144.564C114.744 144.624 114.684 144.685 114.654 144.745C114.594 144.745 114.504 144.745 114.443 144.745C114.443 144.775 114.443 144.806 114.443 144.836C114.443 144.866 114.443 144.926 114.413 144.987C114.383 145.077 114.323 145.168 114.233 145.228C114.353 145.258 114.504 145.288 114.624 145.318C114.413 144.896 114.203 144.443 113.992 143.991C113.902 143.78 113.782 143.568 113.722 143.327C113.692 143.206 113.602 143.025 113.692 142.935C113.541 142.905 113.391 142.905 113.241 142.874C113.511 143.478 113.752 144.112 114.022 144.715C114.143 144.987 114.534 144.836 114.534 144.564C114.564 143.991 114.443 143.418 114.203 142.874C114.022 142.452 113.692 141.879 113.241 141.667C113.06 141.577 112.82 141.577 112.669 141.698C112.429 141.909 112.519 142.211 112.579 142.452C112.76 143.055 112.97 143.659 113.211 144.262C113.451 144.836 113.692 145.409 113.992 145.922C114.233 146.314 114.744 146.707 115.195 146.344C115.556 146.073 115.526 145.53 115.466 145.137C115.346 144.504 115.225 143.87 115.075 143.236C114.894 142.633 114.624 142.029 114.143 141.607C113.692 141.245 113.09 141.034 112.519 141.215C112.188 141.366 112.339 141.909 112.699 141.818Z" fill="white"/>
<path d="M117.24 143.418C117.27 143.418 117.3 143.387 117.33 143.387C117.33 143.417 117.3 143.418 117.24 143.418C117.3 143.387 117.36 143.387 117.39 143.418C117.36 143.418 117.33 143.418 117.33 143.418C117.36 143.418 117.36 143.418 117.39 143.418H117.42C117.36 143.387 117.45 143.418 117.45 143.448C117.48 143.448 117.48 143.478 117.51 143.478C117.48 143.327 117.48 143.176 117.45 143.025C117.45 143.025 117.45 143.025 117.42 143.055C117.45 142.995 117.48 143.025 117.45 143.025C117.42 143.055 117.54 142.995 117.48 142.995H117.45C117.48 142.995 117.51 142.995 117.51 142.995H117.48C117.51 142.995 117.54 142.995 117.54 142.995H117.51H117.48C117.48 142.995 117.54 143.025 117.51 143.025C117.48 142.995 117.45 142.995 117.42 142.965C117.36 142.935 117.3 142.874 117.21 142.844C116.999 142.723 116.759 142.663 116.548 142.814C116.368 142.935 116.248 143.176 116.278 143.387C116.278 143.538 116.338 143.659 116.428 143.749C116.518 143.84 116.608 143.9 116.729 143.961C116.969 144.051 117.27 143.991 117.51 143.84C117.631 143.749 117.691 143.599 117.601 143.448C117.51 143.327 117.36 143.267 117.21 143.357C117.18 143.357 117.15 143.387 117.15 143.387H117.12C117.089 143.387 117.18 143.357 117.15 143.387C117.089 143.417 117.059 143.418 116.999 143.418C117.029 143.418 117.059 143.418 117.059 143.418C116.999 143.418 116.939 143.418 116.909 143.418C116.939 143.418 116.969 143.418 116.969 143.418C116.939 143.418 116.939 143.418 116.909 143.418C116.909 143.418 116.819 143.387 116.879 143.418C116.939 143.448 116.879 143.417 116.849 143.387C116.849 143.387 116.789 143.327 116.819 143.387C116.789 143.357 116.849 143.448 116.819 143.418V143.387C116.819 143.357 116.819 143.357 116.819 143.327C116.819 143.357 116.819 143.387 116.819 143.387C116.819 143.357 116.819 143.297 116.819 143.267C116.819 143.297 116.819 143.327 116.819 143.327C116.819 143.297 116.849 143.267 116.849 143.236C116.849 143.236 116.819 143.297 116.819 143.267V143.236L116.849 143.206C116.849 143.206 116.789 143.267 116.819 143.236C116.789 143.267 116.789 143.236 116.819 143.236C116.819 143.236 116.819 143.236 116.849 143.236C116.879 143.206 116.819 143.267 116.819 143.267C116.849 143.267 116.879 143.267 116.879 143.267C116.849 143.267 116.819 143.267 116.819 143.267C116.849 143.267 116.849 143.267 116.879 143.267C116.909 143.267 116.969 143.297 116.909 143.267C116.849 143.236 116.909 143.267 116.939 143.267C116.969 143.267 116.969 143.297 116.999 143.297C117.059 143.327 117.12 143.387 117.21 143.418C117.3 143.478 117.42 143.508 117.51 143.508C117.631 143.508 117.751 143.448 117.841 143.357C117.901 143.297 117.931 143.206 117.931 143.116C117.931 143.025 117.871 142.965 117.811 142.905C117.631 142.754 117.36 142.723 117.12 142.784C116.969 142.844 116.879 142.965 116.909 143.116C116.939 143.357 117.089 143.478 117.24 143.418Z" fill="white"/>
<path d="M121.72 91.6983C135.251 77.305 140.694 74.0763 146.557 97.1599C138.288 91.6983 129.989 89.8576 121.72 91.6983Z" fill="#F9F7EB"/>
<path d="M77.9997 91.6983C64.4686 77.305 59.0261 74.0763 53.1626 97.1599C61.4617 91.6983 69.7307 89.8576 77.9997 91.6983Z" fill="#F9F8EB"/>
<path d="M57.3423 106.876C57.3423 106.876 65.9721 89.0428 77.9997 105.85C77.9997 105.85 68.8587 124.287 57.3423 106.876Z" fill="white"/>
<path d="M121.72 105.397C121.72 105.397 130.35 87.5643 142.378 104.372C142.378 104.372 133.237 122.808 121.72 105.397Z" fill="white"/>
<path d="M132.064 110.346C135.684 110.346 138.619 107.401 138.619 103.768C138.619 100.135 135.684 97.19 132.064 97.19C128.444 97.19 125.509 100.135 125.509 103.768C125.509 107.401 128.444 110.346 132.064 110.346Z" fill="#171815"/>
<path d="M67.686 113.092C71.3062 113.092 74.241 110.147 74.241 106.514C74.241 102.881 71.3062 99.9359 67.686 99.9359C64.0657 99.9359 61.1309 102.881 61.1309 106.514C61.1309 110.147 64.0657 113.092 67.686 113.092Z" fill="#171815"/>
<path d="M127.523 103.074C128.035 102.471 128.606 101.927 129.237 101.445C129.358 101.354 129.448 101.113 129.448 100.962C129.448 100.781 129.358 100.57 129.237 100.479C129.117 100.358 128.937 100.268 128.756 100.268C128.696 100.268 128.636 100.298 128.576 100.298C128.456 100.328 128.365 100.388 128.275 100.479C127.644 100.962 127.072 101.505 126.561 102.108C126.441 102.259 126.351 102.41 126.351 102.591C126.351 102.772 126.441 102.984 126.561 103.074C126.682 103.195 126.862 103.285 127.042 103.285C127.193 103.255 127.403 103.195 127.523 103.074Z" fill="white"/>
<path d="M129.207 107.751C129.177 107.842 129.117 107.902 129.117 107.992C129.087 108.083 129.087 108.173 129.087 108.264C129.087 108.385 129.087 108.505 129.117 108.626C129.117 108.656 129.147 108.686 129.147 108.717C129.177 108.807 129.207 108.898 129.267 108.958C129.358 109.109 129.478 109.23 129.628 109.32C129.779 109.411 129.959 109.441 130.139 109.471C130.23 109.471 130.32 109.471 130.38 109.441C130.47 109.411 130.56 109.38 130.621 109.35C130.681 109.32 130.771 109.26 130.831 109.199C130.861 109.169 130.861 109.169 130.891 109.139C130.951 109.079 131.011 109.018 131.042 108.928C131.072 108.868 131.102 108.777 131.132 108.686C131.192 108.505 131.192 108.324 131.132 108.143C131.102 108.053 131.072 107.992 131.042 107.902C130.951 107.751 130.891 107.721 130.741 107.6C130.651 107.54 130.56 107.51 130.47 107.51C130.38 107.479 130.29 107.479 130.2 107.51C130.109 107.54 130.019 107.57 129.959 107.63C129.869 107.691 129.809 107.751 129.779 107.842C129.749 107.902 129.718 107.962 129.718 108.023C129.688 108.143 129.688 108.264 129.718 108.385C129.749 108.445 129.779 108.505 129.779 108.566C129.839 108.686 129.929 108.747 130.019 108.807C129.959 108.777 129.929 108.747 129.869 108.686L129.899 108.717C129.869 108.656 129.839 108.626 129.779 108.566L129.809 108.596C129.779 108.536 129.749 108.475 129.749 108.415C129.749 108.445 129.749 108.445 129.779 108.475C129.779 108.415 129.749 108.355 129.749 108.294C129.749 108.324 129.749 108.355 129.749 108.355C129.749 108.294 129.779 108.234 129.779 108.173C129.779 108.204 129.779 108.234 129.749 108.264C129.779 108.204 129.809 108.143 129.809 108.083C129.809 108.113 129.779 108.143 129.749 108.173C129.779 108.113 129.809 108.083 129.869 108.023C129.839 108.053 129.839 108.083 129.809 108.083C129.869 108.053 129.899 108.023 129.959 107.962C129.929 107.992 129.929 107.992 129.899 107.992C129.959 107.962 130.019 107.932 130.079 107.932C130.049 107.932 130.019 107.962 130.019 107.962C130.079 107.962 130.139 107.932 130.2 107.932C130.17 107.932 130.139 107.932 130.139 107.932C130.2 107.932 130.26 107.962 130.32 107.962C130.29 107.962 130.26 107.962 130.23 107.932C130.29 107.962 130.35 107.992 130.41 107.992C130.38 107.992 130.35 107.962 130.35 107.962C130.41 107.992 130.44 108.023 130.5 108.083C130.47 108.053 130.44 108.053 130.44 108.023C130.47 108.083 130.5 108.113 130.56 108.173C130.53 108.143 130.53 108.113 130.5 108.083C130.53 108.143 130.56 108.204 130.56 108.264C130.53 108.234 130.53 108.174 130.53 108.143C130.53 108.204 130.56 108.264 130.56 108.324C130.56 108.294 130.56 108.234 130.56 108.204C130.56 108.264 130.53 108.324 130.53 108.385C130.53 108.355 130.56 108.294 130.56 108.264C130.53 108.324 130.5 108.385 130.5 108.445C130.5 108.445 130.5 108.415 130.53 108.415C130.59 108.324 130.621 108.234 130.621 108.143C130.651 108.053 130.651 107.962 130.621 107.872C130.59 107.781 130.56 107.691 130.5 107.63C130.44 107.54 130.38 107.479 130.29 107.449C130.23 107.419 130.17 107.389 130.109 107.389C129.989 107.359 129.869 107.359 129.749 107.389C129.688 107.419 129.628 107.449 129.568 107.449C129.358 107.57 129.267 107.63 129.207 107.751Z" fill="white"/>
<path d="M134.83 103.828C134.8 103.828 134.8 103.828 134.77 103.828C134.68 103.828 134.62 103.798 134.53 103.798C134.439 103.798 134.379 103.828 134.289 103.828C134.259 103.828 134.259 103.828 134.229 103.828C134.169 103.859 134.079 103.889 134.018 103.919C133.988 103.919 133.988 103.949 133.958 103.949C133.898 103.979 133.838 104.04 133.778 104.07L133.748 104.1C133.688 104.16 133.628 104.251 133.567 104.311C133.507 104.402 133.477 104.492 133.447 104.583C133.447 104.613 133.417 104.643 133.417 104.673C133.417 104.764 133.387 104.854 133.387 104.945C133.387 105.035 133.417 105.096 133.417 105.186C133.417 105.216 133.417 105.216 133.417 105.247C133.447 105.307 133.477 105.397 133.507 105.458C133.537 105.518 133.597 105.579 133.628 105.639C133.688 105.699 133.778 105.76 133.838 105.82L133.868 105.85C133.928 105.88 134.018 105.91 134.079 105.941C134.169 105.971 134.259 105.971 134.349 105.971C134.439 105.971 134.5 105.941 134.59 105.941C134.62 105.941 134.62 105.941 134.65 105.941C134.68 105.941 134.68 105.941 134.71 105.91C134.77 105.88 134.86 105.85 134.92 105.82C135.011 105.79 135.071 105.699 135.161 105.639C135.221 105.579 135.311 105.488 135.341 105.428C135.402 105.337 135.432 105.247 135.462 105.156C135.462 105.126 135.462 105.126 135.492 105.096C135.492 105.035 135.522 104.945 135.522 104.885V104.854C135.522 104.764 135.492 104.673 135.492 104.613C135.492 104.583 135.492 104.583 135.462 104.553C135.432 104.462 135.402 104.372 135.341 104.311C135.281 104.221 135.221 104.16 135.131 104.13C135.041 104.07 134.951 104.04 134.86 104.04C134.77 104.009 134.68 104.009 134.59 104.04C134.53 104.07 134.469 104.1 134.409 104.1C134.289 104.16 134.229 104.251 134.169 104.341C134.139 104.402 134.109 104.462 134.109 104.522C134.079 104.643 134.079 104.764 134.109 104.885C134.109 104.915 134.109 104.915 134.139 104.945C134.139 104.885 134.109 104.824 134.109 104.764C134.109 104.794 134.109 104.824 134.109 104.854C134.109 104.794 134.139 104.734 134.139 104.673C134.139 104.703 134.139 104.734 134.109 104.764C134.139 104.703 134.169 104.643 134.169 104.583C134.169 104.613 134.139 104.643 134.109 104.673C134.139 104.613 134.169 104.583 134.229 104.522C134.199 104.553 134.169 104.583 134.139 104.613C134.199 104.583 134.229 104.553 134.289 104.492C134.259 104.522 134.229 104.553 134.169 104.553C134.229 104.522 134.289 104.492 134.349 104.492C134.319 104.522 134.259 104.522 134.229 104.522C134.289 104.522 134.349 104.492 134.409 104.492C134.379 104.492 134.349 104.492 134.319 104.492C134.379 104.492 134.439 104.522 134.5 104.522C134.469 104.522 134.439 104.522 134.409 104.492C134.469 104.522 134.53 104.553 134.59 104.553C134.56 104.553 134.53 104.522 134.53 104.522C134.59 104.553 134.62 104.583 134.68 104.643C134.65 104.613 134.65 104.613 134.62 104.583C134.65 104.643 134.68 104.673 134.74 104.734C134.71 104.703 134.71 104.703 134.71 104.673C134.74 104.734 134.77 104.794 134.77 104.854C134.77 104.824 134.74 104.794 134.74 104.764C134.74 104.824 134.77 104.885 134.77 104.945C134.77 104.915 134.77 104.885 134.77 104.854C134.77 104.915 134.74 104.975 134.74 105.035C134.74 105.005 134.77 104.945 134.77 104.915C134.74 104.975 134.71 105.035 134.71 105.096C134.74 105.066 134.74 105.005 134.77 104.975C134.74 105.035 134.71 105.066 134.65 105.126C134.68 105.096 134.71 105.066 134.74 105.035C134.68 105.066 134.65 105.096 134.59 105.156C134.62 105.126 134.65 105.126 134.68 105.096C134.62 105.126 134.56 105.156 134.5 105.156C134.53 105.156 134.56 105.126 134.59 105.126C134.53 105.126 134.469 105.156 134.409 105.156C134.439 105.156 134.469 105.156 134.5 105.156C134.439 105.156 134.379 105.126 134.319 105.126C134.349 105.126 134.349 105.126 134.379 105.126C134.469 105.156 134.56 105.156 134.65 105.126C134.74 105.126 134.83 105.096 134.92 105.035C135.011 105.005 135.071 104.945 135.131 104.854C135.191 104.794 135.221 104.703 135.251 104.613C135.251 104.553 135.281 104.492 135.281 104.432C135.281 104.311 135.251 104.19 135.191 104.07C135.161 104.009 135.131 103.979 135.071 103.919C135.071 103.919 134.951 103.859 134.83 103.828Z" fill="white"/>
<path d="M64.1679 104.402C64.7994 104.04 65.4008 103.678 66.0322 103.285C66.3329 103.104 66.4832 102.652 66.2728 102.32C66.0623 101.988 65.6413 101.867 65.3106 102.078C64.6791 102.44 64.0777 102.802 63.4463 103.195C63.1456 103.376 62.9952 103.828 63.2057 104.16C63.4162 104.462 63.8372 104.583 64.1679 104.402Z" fill="white"/>
<path d="M60.3492 103.466C60.0184 104.372 59.838 105.367 59.838 106.333C59.838 106.695 60.1687 107.057 60.5296 107.027C60.9205 106.997 61.2212 106.725 61.2212 106.333C61.2212 106.122 61.2512 105.88 61.2512 105.669C61.2512 105.609 61.2512 105.518 61.2813 105.458C61.3114 105.337 61.3114 105.247 61.3414 105.126C61.4316 104.673 61.5519 104.251 61.7023 103.828C61.8225 103.496 61.5519 103.044 61.2212 102.953C60.8303 102.893 60.4995 103.104 60.3492 103.466Z" fill="white"/>
<path d="M65.942 110.014C66.8441 110.014 66.8441 108.596 65.942 108.596C65.04 108.596 65.04 110.014 65.942 110.014Z" fill="white"/>
<path d="M71.2041 107.721C72.1062 107.721 72.1062 106.303 71.2041 106.303C70.3021 106.303 70.3021 107.721 71.2041 107.721Z" fill="white"/>
<path d="M75.2333 105.82C76.1354 105.82 76.1354 104.402 75.2333 104.402C74.3313 104.402 74.3313 105.82 75.2333 105.82Z" fill="white"/>
<path d="M159.006 19.4C158.916 19.5207 158.855 19.6414 158.765 19.7621C158.254 20.4862 157.743 21.2104 157.202 21.8441C157.081 21.995 156.931 22.1458 156.811 22.2967C156.781 22.3269 156.751 22.3571 156.721 22.3872C156.63 22.5079 156.51 22.5985 156.42 22.7192C155.969 23.1718 155.488 23.6244 154.886 23.8356C154.525 23.9563 154.165 24.0167 153.774 24.0468C153.443 24.077 153.082 24.0468 152.751 24.0468C149.293 23.8658 146.497 24.3788 143.099 23.6848C145.024 22.9304 146.617 21.7536 148.061 20.3354C148.692 19.7319 149.293 19.0379 149.865 18.374C149.985 18.2232 150.105 18.1025 150.226 17.9516C150.346 17.8007 150.466 17.6498 150.586 17.4688C150.677 17.3481 150.797 17.2274 150.887 17.0765C151.308 16.5032 151.729 15.9299 152.15 15.3566C154.044 16.5032 155.909 17.7404 157.713 19.0077C158.134 19.1284 158.555 19.2793 159.006 19.4Z" fill="#333333"/>
<path d="M171.785 31.1077C170.432 30.293 169.199 29.2973 168.117 28.1808C167.365 27.3963 166.703 26.5514 166.162 25.7065C168.087 27.4264 169.981 29.2369 171.785 31.1077Z" fill="#333333"/>
<path d="M160.209 95.4399L155.728 77.305C155.037 74.5289 154.345 71.6623 153.172 69.0371C149.293 60.377 140.604 54.6439 133.628 50.0272L133.928 49.5444C140.964 54.1913 149.745 59.9546 153.653 68.7957C154.856 71.4813 155.578 74.378 156.269 77.1541L160.75 95.289L160.209 95.4399Z" fill="#2B2B2B"/>
<path d="M41.8867 86.6289C41.8867 82.1932 44.8636 78.2404 47.0586 75.3436L56.1094 63.3341C58.2443 60.4977 60.4694 57.5708 63.3861 55.3982C64.2581 54.7344 65.2504 54.1309 66.1826 53.5274C69.2797 51.5359 72.4971 49.484 72.9481 46.0441L73.4893 46.1044C73.0383 49.8159 69.7006 51.9281 66.4832 53.98C65.5511 54.5835 64.5889 55.187 63.7169 55.8207C60.8603 57.9329 58.6653 60.8296 56.5605 63.6359L47.5097 75.6454C45.3748 78.4818 42.4581 82.3441 42.4581 86.5685L41.8867 86.6289Z" fill="#2B2B2B"/>
<g opacity="0.13">
<path d="M76.3459 97.0693C75.2935 99.2721 75.4138 101.535 76.7068 103.617C77.248 104.492 77.9095 105.277 78.5711 106.031C78.8717 106.363 79.1424 106.725 79.4431 107.057C78.992 106.484 79.6836 107.449 79.8039 107.63C80.2248 108.294 79.7738 107.268 79.9242 107.962C79.9843 108.264 79.8941 107.51 79.8941 107.389C79.9542 107.087 79.9542 107.087 79.864 107.419C79.9242 107.299 79.9542 107.178 80.0144 107.087C80.1647 106.846 80.2248 106.725 80.0444 107.027C80.1948 106.816 80.4353 106.786 80.0745 106.997C79.6836 107.238 79.2927 107.449 78.8717 107.661C76.827 108.687 74.8726 109.984 74.3614 112.398C73.9705 114.269 74.9026 116.2 76.797 116.713C78.541 117.196 80.706 116.109 81.0969 114.269C81.2773 113.484 80.5857 115.114 80.9465 114.45C80.8262 114.661 80.4955 114.721 80.9164 114.51C81.1269 114.39 81.3374 114.269 81.5479 114.148C82.2695 113.756 83.0213 113.454 83.6828 113.002C85.938 111.493 87.2309 109.079 86.6897 106.333C86.2988 104.402 85.0359 102.863 83.8031 101.384C83.5625 101.083 83.2919 100.781 83.0513 100.479C82.8108 100.207 82.901 100.238 83.0814 100.509C82.9912 100.358 82.8709 100.207 82.7807 100.057C82.7206 99.9661 82.3598 99.3023 82.6003 99.7851C82.8108 100.207 82.5702 99.7549 82.5702 99.6342C82.6003 99.9661 82.5402 100.358 82.4199 100.6C83.2318 98.8798 82.8709 96.7978 81.157 95.802C79.5934 94.8968 77.1879 95.3494 76.3459 97.0693Z" fill="#816C44"/>
</g>
<g opacity="0.13">
<path d="M118.864 95.4097C117.601 97.0994 116.338 98.7892 115.075 100.449C113.692 102.289 112.369 104.009 112.248 106.423C112.008 111.493 116.398 114.48 120.668 115.868C123.675 116.834 126.862 113.001 124.938 110.286C124.156 109.199 123.344 108.324 122.352 107.419C121.991 107.087 121.63 106.604 121.239 106.303C121.359 106.393 121.269 106.574 121.239 106.725C118.773 106.393 116.278 106.061 113.812 105.729C113.872 109.26 115.977 111.553 118.202 114.027C118.924 114.842 119.585 115.959 120.397 116.954C121.419 118.222 122.652 119.006 124.156 119.61C126.05 120.364 128.305 118.765 128.816 116.954C129.418 114.782 128.065 113.062 126.17 112.277C126.591 112.458 126.531 112.519 126.261 112.187C125.81 111.613 126.261 112.277 125.87 111.674C125.268 110.738 124.607 109.833 123.885 108.988C123.254 108.234 122.472 107.57 121.87 106.785C121.72 106.604 121.6 106.423 121.45 106.061C121.419 106.001 121.359 105.367 121.359 105.669C121.329 103.798 119.946 102.169 118.082 101.927C116.308 101.716 114.323 102.772 113.932 104.643C113.451 106.906 113.932 109.018 115.315 110.859C116.187 112.006 117.751 113.122 118.413 114.027C119.826 112.157 121.269 110.316 122.682 108.445C121.72 108.143 120.698 107.781 120.096 107.117C119.916 106.906 119.796 106.785 119.766 106.363C119.796 106.967 119.736 106.816 120.066 106.303C121.66 103.798 123.645 101.505 125.419 99.1211C126.651 97.4917 125.689 94.8665 124.066 93.9311C122.111 92.9052 120.096 93.7501 118.864 95.4097Z" fill="#816C44"/>
</g>
<g opacity="0.13">
<path d="M46.5775 24.1072C50.8173 28.8748 55.8388 32.6165 61.0708 36.2072C65.4609 39.2247 69.851 42.4836 72.4369 47.2511C74.0306 45.6519 75.6242 44.0526 77.2179 42.4534C73.2789 40.0092 69.3699 37.5349 65.4308 35.0908C62.9652 33.5519 60.4093 35.6339 60.1688 38.1384C59.7478 42.2723 59.6876 46.4364 60.0485 50.5703C60.289 53.286 62.8148 54.8551 65.3106 53.618C67.8664 52.3506 70.2118 50.6307 72.2565 48.6392C73.5796 47.3718 73.6397 44.9277 72.2565 43.6604C71.144 42.6344 70.0013 41.6085 68.8888 40.5524C67.5056 39.285 65.3106 39.1644 63.9274 40.5524C62.6344 41.8499 62.5141 44.2337 63.9274 45.5312C65.0399 46.5571 66.1826 47.5831 67.2951 48.6392C67.2951 46.9796 67.2951 45.32 67.2951 43.6604C65.6413 45.2596 63.8071 46.4968 61.7624 47.5529C63.5064 48.5788 65.2805 49.5746 67.0245 50.6005C66.6637 46.4364 66.7238 42.3025 67.1448 38.1686C65.4008 39.1945 63.6267 40.1903 61.8827 41.2162C65.8217 43.6604 69.7307 46.1347 73.6698 48.5788C76.7368 50.51 80.0745 46.7683 78.4507 43.7811C75.534 38.41 70.7831 34.5476 65.8819 31.1077C63.3861 29.3576 60.8002 27.7282 58.4548 25.8272C55.9591 23.8055 53.6438 21.6028 51.5089 19.1888C50.246 17.7706 47.8404 17.8913 46.5475 19.1888C45.1944 20.5466 45.3146 22.689 46.5775 24.1072Z" fill="#816C44"/>
</g>
<g opacity="0.13">
<path d="M54.1249 108.294C57.1919 105.82 60.1988 102.923 63.5665 100.871C65.1001 99.9359 66.6035 99.5436 68.4077 99.8152C70.5426 100.117 72.6474 100.69 74.7522 101.143C77.5787 101.746 78.7815 97.4012 75.955 96.7977C71.3244 95.8019 66.6336 94.1725 62.1533 96.5261C60.289 97.4917 58.6653 98.9401 57.0416 100.238C55.0269 101.867 53.0424 103.496 51.0277 105.096C50.0956 105.85 50.246 107.48 51.0277 108.264C51.8697 109.23 53.1626 109.079 54.1249 108.294Z" fill="#816C44"/>
</g>
<path d="M102.777 167.165L102.506 167.104C102.867 165.324 103.288 162.005 102.957 160.164C102.867 159.561 102.716 158.957 102.506 158.384L102.777 158.294C102.987 158.897 103.137 159.5 103.228 160.104C103.558 162.005 103.137 165.354 102.777 167.165Z" fill="#1F1C1F"/>
<g opacity="0.35">
<path d="M196.532 93.3578C196.863 97.7633 196.893 102.229 196.622 106.786C193.315 160.074 147.579 200.598 94.4775 197.279C41.3756 193.96 0.992821 148.064 4.30042 94.776C4.39062 93.2371 4.5109 91.6982 4.69132 90.2197C8.26954 137.594 46.1866 176.278 94.7782 179.325C146.347 182.494 190.969 144.383 196.532 93.3578Z" fill="#371A45"/>
</g>
<path d="M183.843 46.2251C181.407 42.5137 178.731 38.9229 175.784 35.483C175.544 35.2114 175.303 34.9399 175.063 34.6683C173.98 33.4613 172.898 32.2543 171.755 31.1077C169.951 29.2369 168.057 27.4264 166.132 25.7064C163.757 23.5942 161.291 21.6027 158.735 19.762C158.374 19.5206 158.044 19.2491 157.683 19.0077C155.879 17.7102 154.014 16.5032 152.12 15.3566C152 15.2962 151.879 15.2057 151.759 15.1453C138.228 6.96803 122.863 2.10992 106.625 1.08399C86.8099 -0.153171 67.5056 4.43336 50.7271 14.2099C45.044 17.499 39.6316 21.4216 34.58 25.8875C14.6442 43.5396 2.76692 67.9207 1.11312 94.5648C-0.540675 121.179 8.23949 146.857 25.8299 166.863C28.4158 169.79 31.122 172.536 33.9786 175.101C34.6401 175.704 35.3016 176.278 35.9932 176.881C38.068 178.661 40.1728 180.321 42.3679 181.92C57.4325 192.813 75.2634 199.271 94.2671 200.447C96.3719 200.568 98.4467 200.659 100.521 200.659C121.961 200.659 141.987 193.749 158.404 181.92C159.096 181.437 159.757 180.924 160.419 180.442C161.592 179.536 162.764 178.631 163.907 177.696C165.471 176.398 166.974 175.04 168.478 173.652C174.431 168.07 179.693 161.764 184.143 154.854C193.104 140.973 198.727 124.649 199.809 106.997C201.132 85.2409 195.54 64.1187 183.843 46.2251ZM94.658 194.081C80.1346 193.175 66.3329 188.981 54.0647 181.92C47.5097 178.148 41.4057 173.532 35.8429 168.161C34.0387 166.41 32.2647 164.57 30.5808 162.639C29.4682 161.371 28.4158 160.104 27.3935 158.806C15.5763 143.87 8.69053 125.946 7.4577 107.087C7.18707 103.074 7.18707 99.0306 7.4577 94.9571C7.69825 91.0042 8.17935 87.1419 8.90101 83.3097C10.0737 77.0937 11.8478 71.0588 14.1932 65.2653C15.2456 62.6401 16.4483 60.0753 17.7413 57.5708C20.658 51.9281 24.1761 46.6174 28.2354 41.6386C29.1676 40.5222 30.0997 39.4057 31.092 38.3194C32.866 36.3279 34.7604 34.3967 36.7149 32.5561C37.3764 31.9224 38.068 31.2887 38.7596 30.6852C41.3155 28.4221 43.9916 26.3099 46.7279 24.3486C48.6824 22.9606 50.6669 21.663 52.6816 20.4561C59.6576 16.2618 67.1147 13.0331 74.8725 10.8002C83.0513 8.47676 91.5909 7.26978 100.281 7.26978C102.235 7.26978 104.22 7.33012 106.204 7.45082C115.827 8.05431 125.148 10.1062 133.898 13.4556C138.439 15.2057 142.829 17.3179 147.038 19.762C147.369 19.9431 147.7 20.1543 148 20.3354C149.955 21.5122 151.849 22.7493 153.714 24.0468C159.727 28.2713 165.29 33.2501 170.252 38.8927C171.605 40.4316 172.898 41.9705 174.1 43.5698C174.401 43.962 174.702 44.3543 175.002 44.7768C178.37 49.2728 181.317 54.0705 183.783 59.0192C184.685 60.7995 185.497 62.6099 186.278 64.4506C187.271 66.8344 188.173 69.2483 188.985 71.6925C189.736 73.9857 190.368 76.279 190.939 78.6025C191.661 81.5596 192.232 84.577 192.653 87.6247C193.254 91.8793 193.555 96.2244 193.555 100.57C193.555 102.531 193.495 104.522 193.375 106.514C193.284 107.751 193.194 108.958 193.074 110.165C191.931 121.511 188.774 132.192 183.993 141.939C179.513 151.052 173.619 159.319 166.583 166.41C165.08 167.919 163.546 169.398 161.953 170.786C161.141 171.51 160.329 172.204 159.517 172.868C159.216 173.139 158.885 173.381 158.555 173.652C158.104 174.014 157.623 174.377 157.172 174.739C153.834 177.334 150.316 179.687 146.647 181.799C131.432 190.701 113.511 195.257 94.658 194.081Z" fill="#F9F8EB"/>
<path d="M72.1061 33.9139C71.4446 34.0045 70.8132 34.095 70.1517 34.2157C70.1517 34.2157 70.1817 34.2157 70.1817 34.2459C70.3321 34.3666 70.4523 34.4571 70.6027 34.5778C70.6628 34.608 70.723 34.6683 70.753 34.6985L70.7831 34.7286C70.9635 34.8795 71.174 35.0606 71.3544 35.2114C71.5348 35.3623 71.6852 35.5132 71.8656 35.6641C72.0159 35.8149 72.1963 35.9658 72.3467 36.0865C72.497 36.2374 72.6775 36.3883 72.8278 36.5391C73.3089 36.4788 73.79 36.4184 74.2711 36.3279L72.1061 33.9139ZM72.1061 33.9139C71.4446 34.0045 70.8132 34.095 70.1517 34.2157C70.1517 34.2157 70.1817 34.2157 70.1817 34.2459C70.3321 34.3666 70.4523 34.4571 70.6027 34.5778C70.6628 34.608 70.723 34.6683 70.753 34.6985L70.7831 34.7286C70.9635 34.8795 71.174 35.0606 71.3544 35.2114C71.5348 35.3623 71.6852 35.5132 71.8656 35.6641C72.0159 35.8149 72.1963 35.9658 72.3467 36.0865C72.497 36.2374 72.6775 36.3883 72.8278 36.5391C73.3089 36.4788 73.79 36.4184 74.2711 36.3279L72.1061 33.9139ZM72.1061 33.9139C71.4446 34.0045 70.8132 34.095 70.1517 34.2157C70.1517 34.2157 70.1817 34.2157 70.1817 34.2459C70.3321 34.3666 70.4523 34.4571 70.6027 34.5778C70.6628 34.608 70.723 34.6683 70.753 34.6985L70.7831 34.7286C70.9635 34.8795 71.174 35.0606 71.3544 35.2114C71.5348 35.3623 71.6852 35.5132 71.8656 35.6641C72.0159 35.8149 72.1963 35.9356 72.3467 36.0865C72.497 36.2374 72.6775 36.3883 72.8278 36.5391C73.3089 36.4788 73.79 36.4184 74.2711 36.3279L72.1061 33.9139ZM197.374 98.8496C197.163 96.2848 196.833 93.7501 196.382 91.3362C196.382 91.3362 196.382 91.3361 196.382 91.306C196.051 89.5257 195.66 87.8057 195.179 86.116C193.766 80.9863 191.751 76.1885 189.105 71.7529C187.571 69.1578 185.857 66.6835 183.903 64.3299C180.595 60.3167 176.716 56.6052 172.266 53.2558C172.026 53.0748 171.755 52.8937 171.514 52.6825C160.84 44.8673 146.978 39.1945 130.711 35.8451C122.382 34.1252 113.421 33.0389 103.919 32.5863C92.5832 32.0431 81.9387 32.4957 72.1362 33.8838C71.4747 33.9743 70.8432 34.0648 70.1817 34.1855C68.5881 34.4269 66.9944 34.7287 65.4308 35.0304C63.9574 35.302 62.5141 35.6339 61.0708 35.9658C60.9806 35.9658 60.9204 35.996 60.8302 36.0262C50.9977 38.3496 42.2476 41.7593 34.7604 46.195C32.7758 47.3718 30.9115 48.609 29.1074 49.9065C23.0936 54.2818 18.1322 59.4115 14.2232 65.2351C10.9457 70.1234 8.41988 75.4945 6.61573 81.3785C5.92415 83.6115 5.35283 85.9047 4.9018 88.2583C4.21021 91.8491 3.7291 95.5908 3.54869 99.5135C3.54869 99.6945 3.51862 99.9057 3.51862 100.087C2.64662 118.674 7.60801 136.839 17.9217 152.651C18.6734 153.828 19.7258 155.125 21.0188 156.483C21.7705 157.268 22.5824 158.052 23.4544 158.867C24.146 159.501 24.8677 160.134 25.6494 160.798C28.4759 163.182 31.9038 165.656 35.8128 168.1C43.9615 173.23 54.2451 178.239 65.7315 181.86C75.113 184.817 85.3065 186.839 95.8306 187.231C97.4243 187.291 98.9879 187.321 100.582 187.321C114.052 187.321 126.952 185.149 138.348 181.86C145.264 179.838 151.609 177.424 157.202 174.799C157.713 174.558 158.194 174.316 158.675 174.075C159.126 173.864 159.547 173.652 159.968 173.441C162.885 171.963 165.531 170.454 167.906 168.915C168.688 168.402 169.47 167.889 170.191 167.376C171.063 166.742 171.905 166.139 172.687 165.505C175.002 163.695 176.837 161.914 178.19 160.195C180.295 157.539 182.249 154.793 184.023 151.927C192.112 139.042 196.712 124.438 197.434 109.23C197.705 105.699 197.644 102.199 197.374 98.8496ZM27.4235 158.806C24.0859 156 21.6202 153.405 20.2069 151.172C10.4345 136.176 5.59339 118.946 6.22484 101.324C6.22484 100.962 6.2549 100.6 6.2549 100.238C6.52552 94.2027 7.4276 88.5299 8.93105 83.2795C12.4491 70.9683 19.3049 60.89 29.4081 53.0748C31.5129 51.4454 33.738 49.9366 36.1135 48.5184C43.0294 44.4147 51.0879 41.2162 60.0785 38.9833C61.3113 38.6815 62.5442 38.3798 63.777 38.1384C65.4308 37.7763 67.0846 37.4745 68.7985 37.1728C70.1216 36.9314 71.4747 36.7202 72.8278 36.5391C73.3089 36.4788 73.79 36.4184 74.2711 36.3279C80.736 35.483 87.5616 35.0606 94.7181 35.0606C97.6648 35.0606 100.702 35.1209 103.769 35.2718C112.459 35.6942 120.668 36.6296 128.335 38.1082C144.994 41.3067 159.096 46.9494 169.861 54.8249C170.462 55.2474 171.033 55.7 171.635 56.1526C174.732 58.5666 177.528 61.1616 180.024 63.9376C181.407 65.4765 182.7 67.0758 183.873 68.7354C187.962 74.4082 190.909 80.7147 192.713 87.6247C194.006 92.5733 194.728 97.8539 194.848 103.436C194.848 104.009 194.878 104.583 194.878 105.156C194.878 106.454 194.848 107.781 194.788 109.109C194.156 122.356 190.488 135.119 184.083 146.646C181.768 150.78 179.122 154.733 176.115 158.505C174.311 160.798 171.063 163.544 166.643 166.441C164.178 168.04 161.321 169.7 158.134 171.299C158.074 171.329 158.013 171.359 157.953 171.389C149.744 175.523 139.31 179.386 127.403 181.86C117.781 183.851 107.167 184.938 95.9509 184.515C89.1252 184.244 82.48 183.308 76.0753 181.86C70.6929 180.653 65.521 179.084 60.6198 177.273C46.5775 172.144 34.8506 165.053 27.4235 158.806ZM72.1061 33.9139C71.4446 34.0045 70.8132 34.095 70.1517 34.2157C70.1517 34.2157 70.1817 34.2157 70.1817 34.2459C70.3321 34.3666 70.4523 34.4571 70.6027 34.5778C70.6628 34.608 70.723 34.6683 70.753 34.6985L70.7831 34.7286C70.9635 34.8795 71.174 35.0606 71.3544 35.2114C71.5348 35.3623 71.6852 35.5132 71.8656 35.6641C72.0159 35.8149 72.1963 35.9658 72.3467 36.0865C72.497 36.2374 72.6775 36.3883 72.8278 36.5391C73.3089 36.4788 73.79 36.4184 74.2711 36.3279L72.1061 33.9139ZM72.1061 33.9139C71.4446 34.0045 70.8132 34.095 70.1517 34.2157C70.1517 34.2157 70.1817 34.2157 70.1817 34.2459C70.3321 34.3666 70.4523 34.4571 70.6027 34.5778C70.6628 34.608 70.723 34.6683 70.753 34.6985L70.7831 34.7286C70.9635 34.8795 71.174 35.0606 71.3544 35.2114C71.5348 35.3623 71.6852 35.5132 71.8656 35.6641C72.0159 35.8149 72.1963 35.9658 72.3467 36.0865C72.497 36.2374 72.6775 36.3883 72.8278 36.5391C73.3089 36.4788 73.79 36.4184 74.2711 36.3279L72.1061 33.9139Z" fill="#F9F8EB"/>
<g opacity="0.35">
<path d="M181.273 61.7009C192.429 73.4388 198.623 89.1597 197.691 109.226C196.789 128.115 189.873 145.375 178.717 159.406C170.358 169.907 137.252 187.438 97.4407 185.93C83.3984 185.386 69.9576 181.977 58.2908 177.3C107.273 178.114 147.596 156.6 157.97 143.564C172.102 125.761 180.912 103.855 182.025 79.8961C182.356 73.4689 182.085 67.4039 181.273 61.7009Z" fill="#F9F8EB"/>
</g>
<path d="M188.143 66.9852L187.902 66.7438L187.722 66.4421C172.627 42.9361 141.987 28.4221 103.679 26.6117C65.1301 24.771 33.287 36.7805 16.298 59.5019L16.1176 59.7132C15.0952 60.7994 13.3813 60.89 12.2687 59.864C11.2163 58.8683 11.1261 57.269 11.9981 56.1526C30.0997 32.0129 63.6267 19.2491 103.919 21.15C144.001 23.051 176.235 38.4703 192.262 63.485L190.007 64.9635L188.143 66.9852Z" fill="#F9F8EB"/>
</svg>
