<svg width="638" height="638" viewBox="0 0 638 638" fill="none" xmlns="http://www.w3.org/2000/svg">
<path d="M628.455 396.168C585.845 567.062 412.737 671.065 241.803 628.45C70.9411 585.845 -33.0736 412.745 9.55465 241.865C52.1455 70.9517 225.253 -33.0592 396.134 9.54557C567.056 52.1503 671.064 225.268 628.45 396.171L628.453 396.168H628.455Z" fill="#FFC602"/>
<path d="M98.8203 367V327.91H113.901V333.162C114.601 332.212 115.464 331.349 116.489 330.574C117.54 329.774 118.74 329.073 120.091 328.473C121.466 327.873 122.979 327.41 124.63 327.085C126.306 326.76 128.119 326.597 130.069 326.597C132.195 326.597 134.171 326.772 135.997 327.123C137.822 327.448 139.473 327.948 140.949 328.623C142.449 329.298 143.762 330.149 144.888 331.174C146.013 332.199 146.951 333.4 147.701 334.775C148.651 333.45 149.752 332.287 151.002 331.287C152.278 330.261 153.678 329.398 155.204 328.698C156.754 327.998 158.43 327.473 160.231 327.123C162.031 326.772 163.932 326.597 165.933 326.597C169.059 326.597 171.835 326.973 174.261 327.723C176.712 328.448 178.775 329.548 180.451 331.024C182.151 332.5 183.439 334.35 184.315 336.576C185.215 338.777 185.665 341.353 185.665 344.304V367H170.547V347.568C170.547 345.792 170.322 344.241 169.872 342.916C169.447 341.591 168.784 340.49 167.884 339.615C167.008 338.739 165.92 338.089 164.62 337.664C163.344 337.214 161.856 336.989 160.156 336.989C158.48 336.989 156.992 337.214 155.692 337.664C154.391 338.089 153.303 338.739 152.428 339.615C151.578 340.49 150.927 341.591 150.477 342.916C150.027 344.241 149.802 345.792 149.802 347.568V357.546V367H134.684V357.546V347.568C134.684 345.792 134.459 344.241 134.008 342.916C133.558 341.591 132.896 340.49 132.02 339.615C131.145 338.739 130.057 338.089 128.757 337.664C127.481 337.214 125.993 336.989 124.292 336.989C122.617 336.989 121.129 337.214 119.828 337.664C118.528 338.089 117.44 338.739 116.564 339.615C115.689 340.49 115.026 341.591 114.576 342.916C114.126 344.241 113.901 345.792 113.901 347.568V367H98.8203ZM198.704 367V270.495H264.026C268.402 270.495 272.319 270.78 275.777 271.349C279.278 271.918 282.364 272.727 285.033 273.778C287.703 274.784 289.957 276.032 291.795 277.52C293.677 278.964 295.209 280.605 296.391 282.443C297.616 284.238 298.492 286.207 299.017 288.352C299.586 290.453 299.87 292.685 299.87 295.048V295.114C299.87 297.433 299.586 299.622 299.017 301.679C298.448 303.736 297.66 305.64 296.653 307.39C295.647 309.097 294.421 310.629 292.977 311.986C291.577 313.299 290.045 314.415 288.382 315.334V315.465C290.964 316.253 293.283 317.347 295.34 318.748C297.441 320.104 299.214 321.746 300.658 323.671C302.146 325.553 303.284 327.698 304.072 330.105C304.86 332.512 305.254 335.16 305.254 338.049V338.18C305.254 343.038 304.378 347.283 302.628 350.916C300.921 354.505 298.382 357.503 295.012 359.91C291.686 362.273 287.572 364.046 282.67 365.227C277.768 366.409 272.144 367 265.798 367H198.704ZM226.146 308.441H259.758C261.815 308.441 263.632 308.244 265.207 307.85C266.783 307.456 268.096 306.865 269.146 306.077C270.24 305.289 271.05 304.305 271.575 303.123C272.101 301.941 272.363 300.563 272.363 298.987V298.856C272.363 297.28 272.101 295.902 271.575 294.72C271.05 293.538 270.24 292.575 269.146 291.831C268.096 291.087 266.783 290.54 265.207 290.19C263.632 289.796 261.815 289.599 259.758 289.599H226.146V308.441ZM226.146 347.896H262.516C265.054 347.896 267.221 347.677 269.015 347.239C270.809 346.802 272.276 346.145 273.414 345.27C274.595 344.395 275.449 343.322 275.974 342.053C276.543 340.784 276.827 339.34 276.827 337.72V337.589C276.827 335.926 276.543 334.46 275.974 333.19C275.449 331.877 274.595 330.783 273.414 329.908C272.276 329.033 270.809 328.376 269.015 327.939C267.221 327.501 265.054 327.282 262.516 327.282H226.146V347.896ZM348.081 367V290.715H305.671V270.495H417.866V290.715H375.456V367H348.081ZM479.916 369.166C473.789 369.166 467.968 368.641 462.453 367.591C456.939 366.54 451.862 365.031 447.223 363.061C442.583 361.048 438.404 358.597 434.684 355.708C430.964 352.776 427.79 349.45 425.164 345.73C422.582 342.009 420.591 337.895 419.19 333.387C417.834 328.88 417.155 324.021 417.155 318.813V318.682C417.155 310.848 418.687 303.823 421.751 297.608C424.858 291.394 429.169 286.12 434.684 281.787C440.242 277.454 446.873 274.128 454.575 271.808C462.278 269.489 470.747 268.329 479.982 268.329C485.146 268.329 490.07 268.679 494.753 269.379C499.436 270.079 503.856 271.13 508.014 272.53C512.172 273.887 516.002 275.572 519.503 277.585C523.048 279.599 526.199 281.918 528.956 284.544C531.757 287.17 534.121 290.081 536.047 293.276C538.016 296.471 539.504 299.95 540.511 303.714H511.165C510.071 301.044 508.474 298.746 506.373 296.821C504.316 294.895 501.909 293.297 499.152 292.028C496.438 290.759 493.44 289.818 490.158 289.205C486.875 288.593 483.505 288.286 480.047 288.286C476.94 288.286 473.942 288.593 471.053 289.205C468.165 289.774 465.451 290.628 462.913 291.766C460.375 292.86 458.055 294.26 455.954 295.967C453.853 297.674 452.037 299.665 450.505 301.941C448.973 304.173 447.792 306.69 446.96 309.491C446.129 312.248 445.713 315.312 445.713 318.682V318.813C445.713 322.139 446.129 325.203 446.96 328.004C447.792 330.805 448.973 333.344 450.505 335.62C452.037 337.852 453.853 339.821 455.954 341.528C458.055 343.235 460.375 344.657 462.913 345.795C465.451 346.889 468.165 347.721 471.053 348.29C473.942 348.859 476.94 349.143 480.047 349.143C483.505 349.143 486.875 348.859 490.158 348.29C493.44 347.677 496.438 346.736 499.152 345.467C501.909 344.198 504.316 342.6 506.373 340.675C508.474 338.749 510.071 336.451 511.165 333.781H540.511C539.023 339.383 536.462 344.395 532.83 348.815C529.197 353.192 524.733 356.89 519.437 359.91C514.185 362.93 508.211 365.227 501.515 366.803C494.819 368.379 487.619 369.166 479.916 369.166Z" fill="#141414"/>
</svg>
