<svg width="36" height="36" viewBox="0 0 36 36" fill="none" xmlns="http://www.w3.org/2000/svg">
<circle cx="18" cy="18" r="18" fill="url(#paint0_linear_7404_22384)"/>
<path d="M6.53225 24.9832C6.39839 25.1343 6.49468 25.3901 6.68546 25.3901H14.3228C14.415 25.3901 14.5033 25.349 14.568 25.276L19.555 19.6438V10.8597C19.555 10.6458 19.3218 10.5395 19.1868 10.6919L6.53225 24.9832ZM19.555 19.6438V25.151C19.555 25.2831 19.6513 25.3901 19.77 25.3901H27.635C27.7538 25.3901 27.85 25.2831 27.85 25.151V10.8597C27.85 10.6458 27.6167 10.5395 27.4818 10.6919L19.555 19.6438Z" fill="#9DEE65"/>
<defs>
<linearGradient id="paint0_linear_7404_22384" x1="18" y1="0" x2="18" y2="36" gradientUnits="userSpaceOnUse">
<stop stop-color="#252F24"/>
<stop offset="1" stop-color="#1F2521"/>
</linearGradient>
</defs>
</svg>
