<svg width="100" height="100" viewBox="0 0 100 100" fill="none" xmlns="http://www.w3.org/2000/svg">
<path d="M50 100C77.6145 100 100 77.6145 100 50C100 22.3855 77.6145 0 50 0C22.3855 0 0 22.3855 0 50C0 77.6145 22.3855 100 50 100Z" fill="white"/>
<path d="M66.1406 25.9943L54.8615 42.7402C54.0836 43.8854 55.5745 45.2683 56.6549 44.2959L67.7612 34.6373C68.0637 34.3996 68.4743 34.5725 68.4743 35.0047V65.2121C68.4743 65.6226 67.9341 65.8171 67.6964 65.5146L34.1182 25.2812C33.0378 23.9632 31.482 23.2501 29.7318 23.2501H28.5218C25.4103 23.2501 22.8174 25.843 22.8174 29.0194V71.5431C22.8174 74.7194 25.3887 77.3124 28.5866 77.3124C30.5745 77.3124 32.4328 76.2968 33.5131 74.5466L44.7923 57.8007C45.5702 56.6555 44.0793 55.2726 42.9989 56.2449L31.8926 65.8171C31.5901 66.0548 31.1795 65.8819 31.1795 65.4498V35.3072C31.1795 34.8966 31.7197 34.7022 31.9574 35.0047L65.5572 75.238C66.6376 76.5561 68.2582 77.2907 69.9436 77.2907H71.1536C74.3299 77.2907 76.9228 74.6978 76.9228 71.5215V28.9977C76.9228 25.8214 74.3515 23.2285 71.1536 23.2285C69.0793 23.2285 67.221 24.2657 66.1406 25.9943Z" fill="black"/>
</svg>
