<svg width="153" height="153" viewBox="0 0 153 153" fill="none" xmlns="http://www.w3.org/2000/svg">
<g filter="url(#filter0_d_565_36)">
<circle cx="76.1387" cy="68.0325" r="56" fill="url(#paint0_linear_565_36)"/>
</g>
<path fill-rule="evenodd" clip-rule="evenodd" d="M72.0326 26.1859C63.8397 27.0689 56.183 30.1983 49.8696 35.2442C46.9678 37.5634 42.6866 42.0724 42.8041 42.6855C42.8666 43.0109 87.1379 43.1875 88.2454 42.8666C88.7009 42.7346 89.3523 42.1677 91.0059 40.4637C94.525 36.8378 94.9579 36.8372 98.1899 40.4542C100.554 43.0994 100.123 42.9469 105.235 42.9469C110.194 42.9469 110.05 43.0253 108.502 41.1634C99.7889 30.6876 85.3364 24.7521 72.0326 26.1859ZM83.5475 49.493C83.287 49.6524 82.3473 50.6084 81.4592 51.6175C80.1725 53.0794 79.6599 53.5432 78.9356 53.9001L78.0269 54.3481L57.2956 54.3912C42.4328 54.4219 36.5048 54.4837 36.354 54.6094C35.6329 55.2102 33.7859 64.076 34.262 64.6518C34.4227 64.8461 37.2007 64.8784 53.7599 64.8784C76.3488 64.8784 73.328 65.2419 76.205 62.1772C79.4292 58.7428 79.9921 58.7433 83.0659 62.1833C84.3549 63.6258 85.1459 64.3774 85.5869 64.5785C86.4761 64.9838 117.679 65.0478 118.012 64.645C118.492 64.064 116.777 55.582 116.002 54.7044C115.773 54.4452 114.979 54.4268 103.675 54.4203C89.0669 54.4119 90.7822 54.7058 88.1315 51.7577C85.7251 49.0812 84.8921 48.6697 83.5475 49.493ZM68.6411 71.2825C68.4242 71.4013 67.48 72.361 66.5428 73.4155C65.3224 74.7885 64.6062 75.4557 64.0189 75.7665L63.199 76.2004L49.1369 76.2433C37.1108 76.2799 35.0475 76.3193 34.8858 76.5147C34.3738 77.1342 37.4509 86.4703 38.2712 86.7862C38.7384 86.9663 57.6912 86.9059 58.1803 86.7229C58.4245 86.6315 59.6537 85.5305 60.9117 84.2762C64.4533 80.745 64.8098 80.7385 67.869 84.1491C69.1953 85.6277 69.9911 86.3828 70.4383 86.5867C71.2649 86.9634 113.615 87.0646 114.122 86.6911C115.027 86.0225 117.88 77.1169 117.381 76.5138C117.212 76.3093 114.591 76.2791 96.7397 76.2761C72.7067 76.272 75.8402 76.6284 73.1206 73.5897C70.8068 71.0041 69.9531 70.5644 68.6411 71.2825ZM51.9802 92.417C51.7097 92.5826 50.7899 93.5144 49.9365 94.4874C48.346 96.3008 47.6126 96.8642 46.4387 97.1749C45.4376 97.4398 45.5536 97.7526 47.2274 99.3013C63.8667 114.696 88.9112 114.652 105.174 99.1988C105.969 98.4435 106.494 97.8227 106.465 97.6725C106.421 97.4422 104.289 97.4121 82.9147 97.3401C60.8326 97.2657 59.3824 97.244 58.9033 96.9811C58.6228 96.8273 57.5595 95.7696 56.5401 94.6307C54.1897 92.0045 53.3333 91.5887 51.9802 92.417Z" fill="white"/>
<defs>
<filter id="filter0_d_565_36" x="0.138672" y="0.0325317" width="152" height="152" filterUnits="userSpaceOnUse" color-interpolation-filters="sRGB">
<feFlood flood-opacity="0" result="BackgroundImageFix"/>
<feColorMatrix in="SourceAlpha" type="matrix" values="0 0 0 0 0 0 0 0 0 0 0 0 0 0 0 0 0 0 127 0" result="hardAlpha"/>
<feOffset dy="8"/>
<feGaussianBlur stdDeviation="10"/>
<feComposite in2="hardAlpha" operator="out"/>
<feColorMatrix type="matrix" values="0 0 0 0 0.952941 0 0 0 0 0.262745 0 0 0 0 0.592157 0 0 0 0.2 0"/>
<feBlend mode="normal" in2="BackgroundImageFix" result="effect1_dropShadow_565_36"/>
<feBlend mode="normal" in="SourceGraphic" in2="effect1_dropShadow_565_36" result="shape"/>
</filter>
<linearGradient id="paint0_linear_565_36" x1="76.1387" y1="12.0325" x2="42.0056" y2="152.531" gradientUnits="userSpaceOnUse">
<stop stop-color="#FFA8D2"/>
<stop offset="0.927083" stop-color="#FF007A"/>
</linearGradient>
</defs>
</svg>
