<?xml version="1.0" encoding="utf-8"?>
<!-- Generator: Adobe Illustrator 27.0.0, SVG Export Plug-In . SVG Version: 6.00 Build 0)  -->
<svg version="1.1" id="Layer_1" xmlns="http://www.w3.org/2000/svg" xmlns:xlink="http://www.w3.org/1999/xlink" x="0px" y="0px"
	 viewBox="0 0 456 499" style="enable-background:new 0 0 456 499;" xml:space="preserve">
<style type="text/css">
	.st0{fill:#F4C9B8;}
	.st1{fill:#FFFFFF;}
	.st2{fill:#C4A892;}
	.st3{fill:#613B21;}
	.st4{fill:#5B432F;}
	.st5{fill:#9D8285;}
</style>
<path class="st0" d="M329.8,266.3c-39-1.9-76.6,29.7-76.6,29.7s-46.1,38.2-88.4,31.4c-42.3-6.8-77.8-42.4-76.3-57.7
	s56.7-92.2,56.7-92.2l28.1-44l50.2,64l13.1-9.7c0,0-10.9-19.1-9.3-36.3s13.9-28.3,13.9-28.3s-12.1-28.4-9.3-35.5s2.8-7.1,2.8-7.1
	s27.9-41.9,50.3-27.5l18.5,6.1c0,0,24.2-15.7,34.1-11.9s46.1,17.5,49.2,28.4s36.1,27.9,36.1,27.9L446,154l4.5,21.9L436,215.7
	l-20.5,25.8l-30,19.2l-86.3,6.6"/>
<polygon class="st1" points="409.7,100.5 392.1,112.7 392.5,121.8 396,129.5 419.2,128.6 430.8,121.6 424.1,101.8 418,95.1 "/>
<path class="st2" d="M117.6,309.2c76.8,42.7,128.3-9.2,128.3-9.2l44.8,46.5l25.1,40.8c0,0,9.4,32.5,21.7,38.2
	c12.3,5.8,28,73.5,28,73.5H0l-0.2-172.7L57.2,302l31.3-32.3C88.5,269.7,97,302.9,117.6,309.2z"/>
<g transform="translate(0.000000,499.000000) scale(0.100000,-0.100000)">
	<path d="M2880,4845c0-8-6-15-14-15c-7,0-43-27-80-61c-86-79-86-54,0,28C2850,4859,2880,4874,2880,4845z M3274,4784
		c56-27,59-46,4-27c-60,21-171,22-238,1c-74-23-141-68-222-150c-71-71-83-78-46-25c63,89,153,161,247,198
		C3101,4814,3211,4815,3274,4784z M2540,4713c0-4-9-16-19-27c-27-30-73-124-66-136c3-6,1-10-4-10c-30,0,8,120,50,159
		C2524,4720,2540,4726,2540,4713z M3541,4644c64-15,124-47,133-71c10-25,4-24-57,6c-65,32-186,56-267,52c-30-2-78-4-105-5
		c-61-3-131-33-190-82c-56-45-60-30-5,19c52,47,113,78,175,87C3300,4662,3478,4658,3541,4644z M3464,4456c11-8,35-17,51-21
		c17-3,66-25,110-47c62-31,101-61,173-131l92-92l-39-7c-43-7-170-86-171-105c0-25,23-23,88,7c88,40,115,42,194,15
		c101-33,121-55,69-73c-37-13-117-86-137-125c-35-67-11-148,61-203c26-20,51-27,109-33c83-8,135,3,184,37l29,21l30-67
		c17-37,33-74,36-84c3-9,24-46,45-82c69-113,71-135,26-343c-30-140-148-373-235-463c-47-49-175-160-214-187c-119-81-158-90-440-103
		c-132-6-250-13-262-16c-13-2-53-7-90-10c-38-3-99-14-138-26c-38-11-79-22-90-24s-50-15-85-30c-183-74-340-177-376-246
		c-8-16-19-28-25-28s-29-13-52-28c-23-16-113-63-199-105c-131-64-173-80-250-93c-105-19-269-14-353,9c-27,8-68,15-90,16
		c-54,2-201,49-250,79c-74,46-181,130-211,166c-99,119-123,170-124,264c0,69,17,108,109,247c25,38,71,120,102,181s72,135,92,165
		c59,87,216,270,300,349c42,40,77,77,77,83c0,7,30,71,66,143l67,131l79-76c81-77,134-162,183-294c13-33,41-71,92-122
		c47-47,75-85,79-104c7-33,38-71,58-71c7,0,20,8,28,18c9,9,48,49,87,89c39,39,71,79,71,88s-19,44-43,78c-52,76-89,150-83,168
		c3,8,7,52,10,98c5,89,24,130,89,190c28,26,67,90,67,111c0,6-19,31-42,56c-33,36-44,58-54,105c-15,71-5,155,24,221
		c22,50,160,209,207,238c56,35,162,46,240,27c33-9,83-19,110-23c33-4,58-15,75-31l25-25l35,40c43,50,91,72,190,86
		C3359,4477,3434,4474,3464,4456z M2289,4449c44-16,38-29-12-28c-55,3-97-21-128-73c-28-47-103-88-162-88c-52,0-39,13,43,45
		c53,20,74,34,85,55c18,34,72,78,112,90c15,4,28,9,29,9C2257,4460,2271,4455,2289,4449z M2319,4242c-19-9-58-39-85-67
		c-49-49-160-114-199-117c-11,0-46,0-78,0c-85,3-61,22,26,22c66,0,78,3,142,41c39,22,86,58,106,80c33,37,72,57,109,57
		C2348,4258,2339,4251,2319,4242z M4167,3958c11-13,29-39,38-58c17-34,17-35-1-18c-24,20-42,24-75,15c-44-11-51-89-10-102
		c25-8,68,10,83,35c7,11,16,20,21,20c8,0,43-68,36-73c-78-55-94-61-171-59c-83,1-115,14-138,56c-7,14-10,36-6,50
		c14,55,131,156,181,156C4137,3980,4156,3970,4167,3958z M2220,3858c52-22,80-45,80-66c0-12-5-11-22,6c-29,27-112,62-146,62
		c-15,0-65-7-112-16c-84-16-129-19-138-9c-9,8,1,13,44,18c23,4,61,11,85,16C2105,3891,2148,3889,2220,3858z M2024,3615
		c32-30,62-55,66-55c8,0,36-70,45-115c4-19-5-7-27,35c-21,41-45,72-68,87c-38,25-100,84-100,96C1940,3682,1970,3665,2024,3615z
		 M1923,1677c73,5,158,33,284,94c79,38,146,69,150,69c5,0,35,18,67,39l59,40l41-46c22-25,53-62,67-82c15-20,96-108,179-196
		c176-185,319-385,340-478c15-63,79-192,132-267c21-30,72-102,113-160s93-141,115-186c67-135,140-384,140-476c0-26,3-28,45-28
		c45,0,48,3,47,50c-2,132-120,481-196,582c-18,24-47,68-65,98s-43,66-56,80c-67,74-169,254-182,325c-10,51-38,107-86,171
		c-25,34-53,77-63,95c-22,44-90,122-238,272c-65,67-136,145-157,172c-21,28-55,69-75,92c-35,41-36,44-20,68c29,45,189,141,321,193
		c173,68,294,85,755,107c180,9,269,40,395,135c189,143,298,265,370,415c93,194,111,252,135,430c12,88,12,91-14,149
		c-14,32-41,84-60,115c-18,31-39,74-46,95c-7,22-25,61-40,87c-15,25-31,61-35,80c-13,65-85,199-123,227c-19,15-62,50-96,77
		c-34,28-74,59-91,69c-16,11-59,48-95,82l-66,63l9,88c14,155,13,205-7,236c-11,15-67,62-125,104s-117,86-131,99c-45,39-90,55-228,80
		c-269,49-461,57-612,24c-108-23-313-109-364-151c-49-41-109-133-126-194c-16-57-33-68-135-90c-96-20-168-50-201-83
		c-57-58-183-283-205-367c-14-53-36-157-54-253c-14-74-15-98-5-121c10-24,8-37-15-92c-66-157-125-252-198-324
		c-174-169-346-405-418-573c-10-24-29-57-43-75c-34-46-108-170-149-252c-47-93-73-128-210-276c-111-120-120-127-219-176
		c-57-28-128-59-158-68c-30-10-68-25-85-33c-16-9-66-23-110-32c-76-15-80-17-83-44l-4-29l69,7c81,8,297,79,417,137
		c59,29,101,57,134,93c60,63,166,178,209,229c18,20,35,37,38,37s5-11,5-25c0-74,120-227,272-346c93-73,286-149,380-149
		c18,0,51-5,73-11l40-12l-42-20c-25-12-47-31-53-47c-22-53-18-857,4-1030c20-154,30-244,27-254c-1-5,2-30,8-55s13-82,16-126
		c4-44,11-97,16-117l10-38h65h66l-7,32c-3,18-10,53-15,78c-10,48-30,232-36,315c-7,114-16,232-20,260c-2,17-6,109-10,205
		c-3,96-8,178-10,182c-12,19-3,365,12,481l17,129l45-6c25-3,69-6,98-6"/>
	<path class="st3" d="M2985,3860c-16-4-48-8-69-9c-38-1-63-7-153-38c-54-19-104-71-175-185c-63-101-69-123-37-133c26-8,52,15,87,75
		c85,151,122,182,258,216c37,10,88,25,113,35C3082,3848,3062,3880,2985,3860z"/>
	<path class="st3" d="M3997,3393c-14-13-6-34,29-72c21-24,41-38,50-34c22,8,17,22-22,69C4019,3400,4009,3406,3997,3393z"/>
	<path class="st3" d="M3861,3356c-10-11-8-23,9-55c20-40,44-53,53-28c5,13-27,82-42,91C3876,3367,3867,3363,3861,3356z"/>
	<path class="st3" d="M3744,3307c-9-25,0-62,16-62c10,0,15,10,15,34C3775,3315,3754,3333,3744,3307z"/>
	<path class="st3" d="M3579,3263c-4-69,18-120,41-97c17,17-2,108-23,112C3586,3280,3580,3275,3579,3263z"/>
	<path class="st3" d="M3432,3208c-16-16-15-80,1-103c21-28,37-9,37,44S3452,3228,3432,3208z"/>
	<path class="st3" d="M3286,3148c-2-7-7-31-10-53s-7-49-8-60c-2-14,3-20,17-20c40,0,61,136,22,143C3298,3160,3288,3156,3286,3148z"
		/>
	<path d="M2340,2746c0-8,4-17,10-21c5-3,24-34,42-68c21-39,69-100,131-164c79-82,115-110,179-143c56-29,83-39,90-32
		c18,18-14,54-73,86c-82,44-243,188-285,254C2378,2747,2340,2782,2340,2746z"/>
	<path d="M2970,2617c0-30,72-139,113-170c18-14,53-30,77-37c36-10,45-9,58,4c15,14,14,17-3,30c-11,8-31,17-45,20
		c-43,8-93,50-138,114C2986,2644,2970,2654,2970,2617z"/>
	<path class="st4" d="M827,2107c-32-28-50-67-31-67c29,0,87,68,75,88C866,2137,853,2130,827,2107z"/>
	<path class="st4" d="M873,2024c-34-27-43-54-19-54c15,0,76,58,76,73C930,2057,904,2049,873,2024z"/>
	<path class="st4" d="M766,1998c16-53,252-309,343-372c29-21,83-49,120-62c36-14,73-28,81-31c30-12,41-11,47,3c5,15-10,39-25,39
		c-16,1-91,29-139,53c-49,23-68,42-43,42c6,0,10,6,10,13s9,30,20,52c39,77,16,91-30,18c-19-30-28-54-24-67c6-18,5-18-23,2
		c-17,12-46,38-66,59c-29,29-34,39-23,45c17,9,56,70,56,87c0,28-37,7-61-35l-25-45l-57,63c-31,35-75,84-98,111
		C784,2024,754,2036,766,1998z"/>
	<path class="st4" d="M2475,1870c-8-13,47-87,61-82c15,4,10,16-22,56C2493,1869,2480,1878,2475,1870z"/>
	<path class="st4" d="M1097,1790c17,39,18,50,7,50c-7,0-20-10-29-23c-18-28-24-69-10-74C1071,1741,1085,1762,1097,1790"/>
	<path class="st4" d="M2396,1818c7-26,33-58,46-58s9,34-8,58C2413,1848,2386,1848,2396,1818z"/>
	<path class="st4" d="M2254,1733c3-21,5-39,6-40c1-12,40,0,40,12c0,8-4,15-9,15s-12,11-15,25C2266,1785,2248,1775,2254,1733z"/>
	<path class="st4" d="M2390,1716c-47-18-98-38-115-44c-89-36-87-36-270-57c-71-8-144-17-162-20c-30-5-32-4-35,27c-2,18-7,33-13,33
		c-16,0-18-44-3-62c8-10,8-14,1-10c-14,9-63-9-63-23c0-6,10-8,23-6c27,6,116,15,222,21c119,8,195,20,245,37c8,3,31,10,50,16
		c144,44,250,90,250,109C2520,1757,2483,1751,2390,1716z"/>
	<path class="st4" d="M2170,1726c0-29,20-66,35-66c18,0,19,7,4,49C2198,1740,2170,1752,2170,1726z"/>
	<path class="st4" d="M1416,1683c-26-26-47-123-27-123c14,0,24,19,38,70c15,55,15,60,5,60C1427,1690,1420,1687,1416,1683z"/>
	<path d="M2215,1232c-33-10-75-26-93-36c-38-19-61-61-45-77c6-6,88-12,206-14c181-3,197-2,212,15c17,19,18,19,44-1
		c33-25,104-23,109,2c4,23-39,80-78,103C2520,1254,2304,1258,2215,1232z"/>
	<path d="M2397,1053c-15-16-44-19-203-23l-186-5l-13-39c-7-21-12-43-9-50c5-12,366-14,397-1c9,4,35,0,57-9c53-21,257-23,285-2
		c17,12,17,17,5,47c-24,62-24,62-135,54c-101-7-102-7-119,19C2457,1074,2422,1078,2397,1053z"/>
	<path d="M2277,866c-19-15-141-29-223-27c-62,2-74-15-46-63c18-30,20-31,103-34c46-2,100,2,120,9c30,9,40,9,60-4c21-14,50-15,208-9
		c176,7,184,8,202,31c10,13,19,31,19,41c0,38-23,43-191,38c-145-4-163-3-184,14C2318,883,2301,884,2277,866z"/>
	<path d="M2145,690c-10-11-24-20-32-20c-25,0-13-28,25-59c63-53,134-74,227-68c100,8,193,39,230,77c16,17,26,32,23,36
		c-4,3-96,5-206,4c-167,0-201,2-205,14c-3,8-15,19-25,25C2167,707,2159,705,2145,690z"/>
</g>
<polygon class="st1" points="375.3,205.8 354.8,209.2 356.9,220.9 389.7,215.8 411,203.9 412.9,195 403.2,182.5 385.3,185.8 "/>
<g id="Layer_2_00000095317514016275577910000001736839100193857979_">
</g>
<path d="M398.5,178c-1.6,0.6-6.4,1.7-10.5,2.6c-4.1,0.8-9.9,2.6-12.9,4c-2.9,1.3-6.1,2.4-7,2.4s-2.7,0.6-4.2,1.3
	c-1.4,0.8-4.7,2.1-7.5,3.1c-17.2,5.8-24.2,20.6-14.4,30.5c3.8,3.8,11.5,4.7,26.2,3.3c11.2-1.1,30.8-6.8,36.2-10.5
	c9-6.3,16-15.7,16.9-23c0.5-4.2-1.8-8.5-6.5-12C411.7,177.4,403.2,176.5,398.5,178z M402.5,189.3c0.6,3.2-2.5,5.7-7,5.7
	c-3.8,0-5.5-1.6-5.5-5c0-2.4,0.5-2.7,5.3-3.6C401.2,185.3,401.9,185.6,402.5,189.3z M411,196.4c0,2-3.8,7.4-6.1,8.6
	c-2.4,1.4-3.9,0.1-3.9-3.5c0-2.7,1-3.9,4.5-5.7C408.6,194.2,411,194.4,411,196.4z M390.4,205.2c3,4.3,2.1,6.3-3.9,8.5l-5.5,2.1
	l-1.1-3.8c-1.4-4.6-0.7-6.7,2.3-8C386.1,202.5,388.8,202.9,390.4,205.2z M368.7,213c0.6,1.9,0.8,3.8,0.5,4.1c-0.4,0.4-3,0.9-5.9,1.3
	l-5.1,0.6l-0.7-3.2c-0.6-2.6-0.3-3.5,1.6-5c1.4-1.2,3.4-1.8,5.3-1.6C366.9,209.4,367.7,210.1,368.7,213z"/>
<polygon class="st1" points="309,127.3 291.5,132.4 288.1,147.4 296.3,156.2 310.8,156.2 328.8,144.5 330.3,131 324.8,124.6 "/>
<g>
	<path d="M315,124c-3,0.4-8,1.4-11,2.3s-7.3,2-9.6,2.6c-3.4,0.9-4.4,1.8-5.7,4.8c-2.1,4.9-3.7,11.1-3.7,14.4c0,6.2,8,11.4,19,12.2
		c9.2,0.7,12.7-0.6,19-7.1c5.6-5.8,10-14.5,10-19.8c0-2.7-2.6-8.5-4.4-9.6C327.3,122.9,322.7,123,315,124z M323.9,128.6
		c1.2,1.5,2.1,3.8,2.1,5.1c0,4.8-6.5,15-11.9,18.5c-4.9,3.3-18.6,1.9-22.3-2.3c-1.5-1.7-1.5-2.5-0.2-8.2c0.8-3.4,2-6.7,2.7-7.3
		c1.4-1.3,23-8,26.9-8.3C321.6,126,322.8,127.2,323.9,128.6z"/>
	<path d="M311,131.9c-1.4,2.6-1.3,6.4,0.2,7.9c2.1,2.1,7.5,1.5,9.2-1c2.2-3.1,2-5.4-0.6-7.2C316.7,129.4,312.3,129.6,311,131.9z
		 M318,133.5c0,0.8-0.4,1.5-0.9,1.5c-1.3,0-2.2-1.6-1.4-2.4C316.8,131.5,318,132,318,133.5z"/>
</g>
<g>
	<polygon class="st5" points="184.2,129 218.3,166.7 235.3,114.6 233.2,93.2 247.4,57.7 280,45.9 304.5,53.1 351.8,47.3 370.4,48.2 
		369.4,26.9 309.4,8.2 264.3,13.1 235.9,36.8 227.2,47.3 193.9,68.7 181.7,106.4 	"/>
	<path class="st3" d="M287.9,14.5c0,0.8-0.6,1.5-1.4,1.5c-0.7,0-4.3,2.7-8,6.1c-8.6,7.9-8.6,5.4,0-2.8
		C284.9,13.1,287.9,11.6,287.9,14.5z M327.3,20.6c5.6,2.7,5.9,4.6,0.4,2.7c-6-2.1-17.1-2.2-23.8-0.1c-7.4,2.3-14.1,6.8-22.2,15
		c-7.1,7.1-8.3,7.8-4.6,2.5c6.3-8.9,15.3-16.1,24.7-19.8C310,17.6,321,17.5,327.3,20.6z M253.9,27.7c0,0.4-0.9,1.6-1.9,2.7
		c-2.7,3-7.3,12.4-6.6,13.6c0.3,0.6,0.1,1-0.4,1c-3,0,0.8-12,5-15.9C252.3,27,253.9,26.4,253.9,27.7z M354,34.6
		c6.4,1.5,12.4,4.7,13.3,7.1c1,2.5,0.4,2.4-5.7-0.6c-6.5-3.2-18.6-5.6-26.7-5.2c-3,0.2-7.8,0.4-10.5,0.5c-6.1,0.3-13.1,3.3-19,8.2
		c-5.6,4.5-6,3-0.5-1.9c5.2-4.7,11.3-7.8,17.5-8.7C329.9,32.8,347.7,33.2,354,34.6z M387.3,66.1l0.9-8.8c1.4-15.5,1.3-20.5-0.7-23.6
		c-1.1-1.5-6.7-6.2-12.5-10.4s-11.7-8.6-13.1-9.9c-4.5-3.9-9-5.5-22.8-8C312.2,0.5,293-0.3,277.9,3c-10.8,2.3-31.3,10.9-36.4,15.1
		c-4.9,4.1-10.9,13.3-12.6,19.4c-1.6,5.7-3.3,6.8-13.5,9c-9.6,2-16.8,5-20.1,8.3c-5.7,5.8-18.3,28.3-20.5,36.7
		c-1.4,5.3-3.6,15.7-5.4,25.3c-1.4,7.4-1.5,9.8-0.5,12.1l13.2,18c8.1,7.7,13.4,16.2,18.3,29.4c1.3,3.3,4.1,7.1,9.2,12.2
		c4.7,4.7,7.5,8.5,7.9,10.4c0.7,3.3,3.8,7.1,5.8,7.1c0.7,0,2-0.8,2.8-1.8c0.9-0.9,4.8-4.9,8.7-8.9c3.9-3.9,7.1-7.9,7.1-8.8
		c0-0.9-1.9-4.4-4.3-7.8c-5.2-7.6-8.9-15-8.3-16.8c0.3-0.8,0.7-5.2,1-9.8c0.5-8.9,2.4-13,8.9-19c2.8-2.6,6.7-9,6.7-11.1
		c0-0.6-1.9-3.1-4.2-5.6c-3.3-3.6-4.4-5.8-5.4-10.5c-1.5-7.1-0.5-15.5,2.4-22.1c2.2-5,16-20.9,20.7-23.8c5.6-3.5,16.2-4.6,24-2.7
		c3.3,0.9,8.3,1.9,11,2.3c3.3,0.4,5.8,1.5,7.5,3.1l2.5,2.5l3.5-4c4.3-5,9.1-7.2,19-8.6c8.9-1.3,16.4-1,19.4,0.8
		c1.1,0.8,3.5,1.7,5.1,2.1c1.7,0.3,6.6,2.5,11,4.7c6.2,3.1,10.1,6.1,17.3,13.1L387.3,66.1z M228.8,54.1c4.4,1.6,3.8,2.9-1.2,2.8
		c-5.5-0.3-9.7,2.1-12.8,7.3c-2.8,4.7-10.3,8.8-16.2,8.8c-5.2,0-3.9-1.3,4.3-4.5c5.3-2,7.4-3.4,8.5-5.5c1.8-3.4,7.2-7.8,11.2-9
		c1.5-0.4,2.8-0.9,2.9-0.9C225.6,53,227,53.5,228.8,54.1z M231.8,74.8c-1.9,0.9-5.8,3.9-8.5,6.7c-4.9,4.9-16,11.4-19.9,11.7
		c-1.1,0-4.6,0-7.8,0c-8.5-0.3-6.1-2.2,2.6-2.2c6.6,0,7.8-0.3,14.2-4.1c3.9-2.2,8.6-5.8,10.6-8c3.3-3.7,7.2-5.7,10.9-5.7
		C234.7,73.2,233.8,73.9,231.8,74.8z M221.9,113.2c5.2,2.2,8,4.5,8,6.6c0,1.2-0.5,1.1-2.2-0.6c-2.9-2.7-11.2-6.2-14.6-6.2
		c-1.5,0-6.5,0.7-11.2,1.6c-8.4,1.6-12.9,1.9-13.8,0.9c-0.9-0.8,0.1-1.3,4.4-1.8c2.3-0.4,6.1-1.1,8.5-1.6
		C210.4,109.9,214.7,110.1,221.9,113.2z M202.3,137.5c3.2,3,6.2,5.5,6.6,5.5c0.8,0,3.6,7,4.5,11.5c0.4,1.9-0.5,0.7-2.7-3.5
		c-2.1-4.1-4.5-7.2-6.8-8.7c-3.8-2.5-10-8.4-10-9.6C193.9,130.8,196.9,132.5,202.3,137.5z"/>
</g>
<path class="st3" d="M389,82.5l-3.9,0.7c-4.3,0.7-17,8.6-17.1,10.5c0,2.5,2.3,2.3,8.8-0.7c8.8-4,17.4-2,25.3,0.7L389,82.5z"/>
</svg>
