<svg width="100" height="100" viewBox="0 0 100 100" fill="none" xmlns="http://www.w3.org/2000/svg">
<g clip-path="url(#clip0_19310_42333)">
<path fill-rule="evenodd" clip-rule="evenodd" d="M50 100C77.6142 100 100 77.6142 100 50C100 22.3858 77.6142 0 50 0C22.3858 0 0 22.3858 0 50C0 77.6142 22.3858 100 50 100ZM46.8981 10.6081C47.2692 10.4752 47.609 10.3502 47.6481 10.3346C47.8278 10.2643 47.9762 10.3229 48.0583 10.4987C48.1403 10.6627 48.3044 11.3854 48.4762 12.2995C48.6637 13.3424 48.7809 16.1354 48.6481 16.6081C48.5934 16.8034 48.4801 16.8971 48.3044 16.8971C48.1598 16.8971 48.1286 16.8151 47.9801 16.0338C47.7497 14.8346 47.3356 13.7643 46.9958 13.4752C46.8551 13.358 46.8005 13.3424 46.6286 13.3698C46.1012 13.4518 45.3356 14.0573 45.0348 14.6354C44.7497 15.1784 44.6794 15.4948 44.6794 16.1471C44.6833 17.0455 44.9879 18.1706 45.4645 19.0495C45.5168 19.1441 45.5946 19.288 45.6693 19.4265L45.6709 19.4294C45.7129 19.507 45.7538 19.5828 45.7887 19.6471C46.5739 21.112 47.5036 21.8932 48.8747 22.2448C49.6403 22.4401 51.2301 22.6784 53.0895 22.8776C53.4528 22.9127 53.8044 22.9596 53.863 22.9791C53.9333 22.9948 54.0778 23.1784 54.2692 23.487C55.3161 25.194 56.0387 26.1432 57.1208 27.2291C58.0661 28.1705 58.6364 28.5846 59.8747 29.2174C60.5856 29.5846 60.7809 29.6237 60.8278 29.4245C60.8747 29.237 60.7809 29.1354 60.2887 28.8385C58.0895 27.5104 56.3083 25.5885 55.0661 23.2096C54.8083 22.7135 54.7887 22.6588 54.8083 22.3971C54.8278 22.0885 54.9684 21.862 55.6481 21.0182C55.8278 20.7956 56.1208 20.4245 56.3005 20.194C56.4801 19.9635 56.8395 19.5143 57.1012 19.194C57.2164 19.0509 57.3393 18.9001 57.4485 18.7662L57.4489 18.7656C57.584 18.5999 57.6978 18.4601 57.7497 18.3932C58.0895 17.9752 60.07 15.6706 60.3708 15.3502C62.7614 12.7995 64.1794 11.4518 64.7497 11.2174C65.0465 11.0924 65.7145 11.0495 66.4762 11.1002C67.6247 11.1823 71.0348 11.7877 73.8005 12.4049C73.9203 12.4314 74.0527 12.4612 74.1851 12.4909C74.4625 12.5532 74.7394 12.6154 74.8981 12.6471C77.7028 13.2682 77.8161 13.2995 78.1637 13.6549C78.4059 13.9049 78.4255 13.9635 78.3981 14.3737C78.3864 14.612 78.3005 14.8854 78.0778 15.362C77.6715 16.2526 77.1989 17.5885 76.9528 18.5846C76.6364 19.8424 76.359 22.0104 76.5036 22.1041C76.6051 22.1745 79.363 22.1237 79.6208 22.0495C79.8747 21.9752 80.0739 21.7604 80.2692 21.3502C80.4137 21.0456 80.4333 21.0221 80.6051 21.0104C80.9059 20.983 80.9255 21.0456 80.9137 22.0456C80.9098 22.7877 80.8903 22.9752 80.8044 23.2487C80.5895 23.9088 79.863 24.5768 79.1012 24.819C78.6715 24.9596 77.734 25.1549 75.4489 25.6002C74.9603 25.6931 74.4855 25.7847 74.1419 25.851L74.1371 25.8519L74.1365 25.852C73.876 25.9023 73.692 25.9378 73.6364 25.9479C73.2848 26.0182 73.2106 26.0143 73.1286 25.8854C73.0036 25.6979 72.7653 24.9752 72.5778 24.2252C72.3786 23.4088 71.8981 20.987 71.8981 20.7721C71.8981 20.694 71.945 20.5338 71.9997 20.4206C72.1286 20.1549 73.0114 19.3034 73.6755 18.7995C74.1051 18.4752 74.1755 18.3971 74.1911 18.2604C74.2028 18.1198 74.1911 18.1002 74.0856 18.1002C73.8395 18.1002 73.0934 18.4635 72.5934 18.8346C71.6208 19.5455 70.7692 20.6588 70.0505 22.1745C69.195 23.9674 68.0661 27.0299 67.5895 28.8385L67.3786 29.6237V30.8502C67.3747 31.9635 67.3864 32.1081 67.484 32.4752C67.6481 33.0729 67.8083 33.5143 68.1012 34.1471C68.3512 34.7096 68.488 34.9791 68.988 35.858C69.7106 37.1198 71.0505 38.9049 71.5544 39.2799C71.6833 39.3737 71.8864 39.483 72.0036 39.5299C72.4059 39.6705 73.3005 39.7526 74.7497 39.7838C76.3981 39.8151 76.5348 39.7995 76.7184 39.5104C77.0895 38.9205 77.3044 37.4674 77.0856 37.0573C76.9528 36.819 76.7887 36.7682 76.4215 36.862C76.0778 36.9518 74.984 37.4323 74.3551 37.7721C73.8903 38.0182 73.8239 38.0338 73.6598 37.9205C73.5114 37.8151 73.5192 37.6041 73.6833 37.3893C73.9801 37.0143 75.5544 35.9088 77.1989 34.9284C78.5465 34.1237 79.0778 33.9049 79.3434 34.0495C79.6364 34.1979 79.7653 34.9245 79.8512 36.7721C79.9333 38.5182 79.8708 39.7252 79.6403 40.7174C79.4294 41.6432 79.2458 41.8581 78.1989 42.4127C75.7848 43.6823 73.4762 44.0846 71.4684 43.5729C70.3044 43.2799 69.5231 42.7291 67.8981 41.0651C66.0739 39.1979 64.5231 37.862 62.9489 36.8151C61.8708 36.0924 60.6051 35.4479 59.1755 34.8854C56.8551 33.9674 54.5309 33.3971 49.3981 32.4987C46.9801 32.0729 46.7614 32.0104 46.4059 31.6237C46.1637 31.362 46.0387 31.112 45.2848 29.4479C44.2301 27.1041 42.6715 23.3346 42.1364 21.8229C41.4684 19.9518 41.3044 18.5768 41.5465 16.8229C41.6989 15.6823 42.0934 13.9479 42.2809 13.5885C42.4215 13.3151 43.9215 12.1198 44.7262 11.6393C45.2887 11.3034 46.2262 10.8581 46.8981 10.6081ZM66.484 28.3698C66.5505 28.1901 66.2028 27.9205 65.6286 27.7018C65.3161 27.5885 64.734 27.5377 64.3747 27.6002C63.4059 27.7604 62.5583 28.4596 62.2184 29.3854C62.0934 29.7252 62.0739 29.8385 62.0778 30.2995C62.0778 30.7096 62.1051 30.8893 62.1911 31.1198C62.4762 31.8893 63.0583 32.5495 63.7731 32.9049C64.2145 33.1237 64.2184 33.1237 64.7458 33.1237C65.1833 33.1237 65.3161 33.1041 65.5153 33.0143C65.6989 32.9284 65.7497 32.8776 65.7497 32.7799C65.7497 32.6745 65.7106 32.6432 65.4215 32.5495C64.1403 32.1393 63.5153 30.8541 64.0387 29.7291C64.2614 29.2643 64.3708 29.1198 64.7106 28.8737C65.1559 28.5455 65.484 28.4323 66.0153 28.4401C66.359 28.444 66.4606 28.4284 66.484 28.3698ZM29.0499 33.6103C29.0499 33.6415 29.1788 33.7978 29.3389 33.9462C30.4288 34.9853 31.2842 36.372 31.671 37.7275C31.8897 38.4892 31.9483 38.8915 31.9835 39.7548C32.0147 40.6376 31.9678 41.2275 31.7999 42.0126C31.6592 42.661 31.5772 42.7821 30.9131 43.329C27.9053 45.8251 26.4131 47.7353 26.0303 49.6103C25.9288 50.0907 25.9288 50.3368 26.0225 50.829C26.1241 51.3446 26.3194 51.7509 26.6788 52.1767C27.1358 52.7196 27.2296 52.7704 27.171 52.4345C27.1006 52.079 27.1241 51.8798 27.2686 51.5946C27.7335 50.7118 29.0733 49.704 31.0577 48.7548C31.7296 48.4345 31.8506 48.3993 31.8506 48.5321C31.8506 48.6103 31.2686 49.747 30.96 50.2743C30.5108 51.0321 29.8585 51.7704 29.2999 52.1493C28.9288 52.3993 28.4249 52.6571 27.8585 52.8759C27.0303 53.1962 26.8936 53.2743 26.6749 53.5868C25.5303 55.2001 24.3233 56.6259 22.8858 58.0751C21.335 59.6376 20.0577 60.7743 18.96 61.5946C18.7452 61.7548 18.6006 61.8954 18.6006 61.9501C18.6006 62.0478 18.9249 62.2196 19.8975 62.6493C21.7256 63.454 23.8389 63.7548 25.2686 63.4071C25.9327 63.247 26.4131 62.997 27.7608 62.1103C30.46 60.3407 33.2803 58.7743 35.1475 58.0009C36.8546 57.2978 37.7452 57.0165 39.2491 56.6962C39.671 56.6103 39.9405 56.5868 40.5733 56.5868C41.7647 56.5868 42.2491 56.7196 42.7374 57.1923C43.0694 57.5009 43.21 57.7899 43.2374 58.2118C43.3155 59.2665 42.6788 60.4345 41.3428 61.7274C40.71 62.3368 40.2374 62.7118 39.1475 63.4618C37.5694 64.5478 36.1085 65.8095 35.1788 66.8993C34.96 67.161 34.7647 67.3876 34.7491 67.3993C34.7335 67.4149 34.6006 67.579 34.4483 67.7743C33.003 69.6064 31.9327 71.6103 31.085 74.1024C30.5577 75.6259 30.0538 78.1571 29.8975 80.0243C29.7647 81.6142 29.7881 84.2196 29.9483 85.6767C30.0538 86.6493 30.2139 87.747 30.378 88.6259C30.4472 88.9799 30.5146 89.3558 30.5604 89.6112L30.5605 89.6114C30.5818 89.7307 30.5985 89.8237 30.6085 89.8759C30.6631 90.1923 30.7647 90.3564 30.8506 90.2704C30.8741 90.247 30.9288 89.9774 30.9678 89.6767C31.0928 88.7274 31.7608 86.372 32.2725 85.0517C33.6788 81.4462 36.0655 78.1415 39.1983 75.4462C42.2842 72.7978 46.3272 70.6923 50.3936 69.6259L50.921 69.4853L51.0108 69.6024C51.2139 69.8564 51.4327 70.8603 51.4796 71.7743C51.5538 73.1806 51.0381 75.6259 50.3741 77.0243C50.1592 77.4814 50.1475 77.579 50.3194 77.4892C50.5381 77.372 51.8897 76.1064 52.3975 75.5399C53.4092 74.4149 54.5538 72.8251 55.3741 71.3993C56.2725 69.8446 57.378 67.4267 57.8624 65.9696C57.9952 65.5751 58.0928 65.3524 58.1397 65.3524C58.2256 65.3524 58.5538 66.0478 58.7178 66.5751C58.878 67.0907 59.0303 67.7665 59.1006 68.3017C59.253 69.5321 59.2452 71.8095 59.0694 73.2353C59.0225 73.6024 58.9991 73.9228 59.0108 73.954C59.0928 74.2157 60.9874 70.7196 61.6397 69.1024C62.4678 67.0399 63.1124 64.5907 63.3975 62.4267L63.4373 62.1243L63.4374 62.1237C63.4829 61.7773 63.5307 61.4136 63.5577 61.2274C63.6436 60.6064 63.6436 56.6962 63.5577 55.8251C63.4756 54.9657 63.2803 53.6649 63.1553 53.1454C62.9991 52.4814 62.9874 52.411 63.046 52.3798C63.1085 52.3407 63.2999 52.6649 63.7725 53.6259C64.9796 56.0712 65.5303 57.997 65.6592 60.2392C65.7178 61.2118 65.6788 62.079 65.5694 62.3642C65.5147 62.5165 65.6827 62.4618 65.8194 62.286C66.0225 62.0126 66.9678 60.1064 67.171 59.5517C67.6905 58.1103 68.0381 56.536 68.1749 55.0165C68.2335 54.3368 68.2022 52.247 68.1241 51.4774C67.796 48.2743 66.6905 45.0595 65.0655 42.5673C64.2881 41.3759 63.1085 40.0517 62.1397 39.286C59.4952 37.1923 56.4444 36.1259 52.4405 35.8915C49.2178 35.7001 44.3936 36.4423 41.2491 37.6025C41.2137 37.6155 41.1804 37.6278 41.149 37.6394C40.8952 37.7335 40.7654 37.7816 40.6415 37.7693C40.5119 37.7564 40.3888 37.6773 40.1368 37.5154C40.1141 37.5008 40.0904 37.4856 40.0655 37.4696C39.0303 36.8212 37.0889 35.8173 35.8272 35.2821C33.9131 34.4618 31.8506 33.8954 29.7999 33.6259C29.1046 33.536 29.0499 33.536 29.0499 33.6103ZM25.0907 37.7376C25.1649 37.6634 26.3993 37.4954 27.2 37.4525C28.2352 37.3978 28.3094 37.3978 29.5125 37.4486C30.1102 37.4759 30.6375 37.515 30.6805 37.5384C30.7743 37.5892 30.8993 38.015 31.036 38.7259C31.2196 39.7103 31.1219 41.6204 30.8563 42.1439C30.7977 42.2533 30.5711 42.4876 30.3172 42.6986L30.2973 42.7156C30.0577 42.9204 29.7508 43.1828 29.6102 43.3158C29.4539 43.4525 29.325 43.5462 29.3016 43.5189C29.2743 43.4954 29.2196 43.3001 29.1766 43.0853C28.8993 41.7611 28.4227 40.765 27.5555 39.7337C27.0243 39.1048 26.0164 38.3079 25.3641 38.015C25.0789 37.8861 25.0125 37.8197 25.0907 37.7376Z" fill="white"/>
</g>
<defs>
<clipPath id="clip0_19310_42333">
<rect width="100" height="100" fill="white"/>
</clipPath>
</defs>
</svg>
