<svg width="30px" height="30px" viewBox="0 0 32 32" fill="none" xmlns="http://www.w3.org/2000/svg" aria-hidden="true" focusable="false"><rect width="32" height="32" rx="16" fill="url(#paint0_linear_6423_40363)"></rect><rect width="32" height="32" rx="16" fill="url(#paint1_linear_6423_40363)" fill-opacity="0.66"></rect><g clip-path="url(#clip0_6423_40363)"><path fill-rule="evenodd" clip-rule="evenodd" d="M23.4434 23.1563C23.4452 23.1695 23.446 23.183 23.4463 23.1966C23.4467 23.3019 23.3926 23.3998 23.3029 23.4551L16.1188 27.8849C16.0217 27.9447 15.8995 27.9451 15.8027 27.8853L8.67665 23.5107C8.58697 23.4554 8.53241 23.3578 8.53277 23.2525C8.53277 23.2435 8.53315 23.2341 8.53427 23.2251C8.53315 23.2153 8.53277 23.206 8.53277 23.1962L8.53233 17.7306C8.53233 17.724 8.53271 17.7174 8.53308 17.7111C8.52785 17.6319 8.55399 17.5516 8.61004 17.4894C8.70568 17.3835 8.86222 17.3591 8.98516 17.4307L15.9876 21.4947L22.9254 17.47C22.9366 17.463 22.9486 17.4575 22.9605 17.4523C23.0113 17.413 23.0749 17.3897 23.1444 17.3897C23.3106 17.3897 23.4459 17.5249 23.4459 17.6913L23.4463 23.1139C23.4463 23.1285 23.4452 23.1424 23.4434 23.1563ZM9.13579 22.7192L11.2057 21.4686L9.13547 18.6194L9.13579 22.7192ZM11.5614 21.9586C10.9872 22.3053 9.4142 23.2556 9.4142 23.2556L14.9911 26.6796L11.5614 21.9586ZM17.0267 26.6167L22.5649 23.2015L20.425 21.9148L17.0267 26.6167ZM20.7795 21.4241L22.8432 22.665L22.8429 18.569L20.7795 21.4241ZM15.8363 22.1041L9.91637 18.668L15.9872 27.025L22.0019 18.7028L16.1389 22.1041C16.0455 22.1583 15.9297 22.1583 15.8363 22.1041ZM8.82367 16.2636C8.66188 16.258 8.53221 16.1253 8.53219 15.962L8.53163 8.85769C8.53163 8.83997 8.53313 8.82258 8.53612 8.8059C8.53313 8.78957 8.53163 8.7729 8.53162 8.75587C8.53124 8.65059 8.58579 8.55261 8.67546 8.49771L15.8599 4.09148C15.9563 4.03206 16.0781 4.03207 16.1745 4.09114L23.3006 8.44176C23.3906 8.49666 23.4452 8.59464 23.4452 8.69992C23.4452 8.70444 23.4448 8.70862 23.4448 8.71314C23.4448 8.71765 23.4452 8.72216 23.4452 8.72703L23.4458 15.9248C23.4458 16.052 23.3666 16.1611 23.2552 16.2052L16.1328 20.1232C16.0424 20.1729 15.9325 20.1729 15.8421 20.1232L8.82367 16.2636ZM9.13473 9.28784L9.13518 15.0044L11.6973 10.8285L9.13473 9.28784ZM22.8422 9.23364L20.2559 10.7962L22.8426 15.0117L22.8422 9.23364ZM19.9406 10.282C20.6037 9.88132 22.5627 8.69785 22.5627 8.69785L16.8154 5.18878L19.9406 10.282ZM15.1168 5.25446L9.41417 8.75205L12.0126 10.3146L15.1168 5.25446ZM9.32394 15.8504L15.9874 19.5148L22.6495 15.8501L15.9863 4.99072L9.32394 15.8504Z" fill="#D7CDFF"></path></g><defs><linearGradient id="paint0_linear_6423_40363" x1="2.21722" y1="21.0232" x2="29.9326" y2="10.9444" gradientUnits="userSpaceOnUse"><stop stop-color="#29BCFA"></stop><stop offset="0.43" stop-color="#6464E4"></stop><stop offset="1" stop-color="#B45AFA"></stop></linearGradient><linearGradient id="paint1_linear_6423_40363" x1="17" y1="-2" x2="16" y2="32" gradientUnits="userSpaceOnUse"><stop stop-color="#33117B" stop-opacity="0"></stop><stop offset="0.827261" stop-color="#33117B"></stop></linearGradient><clipPath id="clip0_6423_40363"><rect width="14.9136" height="23.8831" fill="white" transform="matrix(1 0 7.90675e-05 1 8.53125 4.04688)"></rect></clipPath></defs></svg>
